<mxfile host="Electron" agent="Mozilla/5.0 (Windows NT 10.0; Win64; x64) AppleWebKit/537.36 (KHTML, like Gecko) draw.io/24.7.17 Chrome/128.0.6613.36 Electron/32.0.1 Safari/537.36" version="24.7.17" pages="4">
  <diagram name="Task1" id="-H_mtQnk-PTXWXPvYvuk">
    <mxGraphModel dx="1105" dy="704" grid="1" gridSize="10" guides="1" tooltips="1" connect="1" arrows="1" fold="1" page="1" pageScale="1" pageWidth="827" pageHeight="1169" math="0" shadow="0">
      <root>
        <mxCell id="0" />
        <mxCell id="1" parent="0" />
        <mxCell id="Bf5v76IvN_NNOUFubVjB-1" value="pymongo-api" style="rounded=1;whiteSpace=wrap;html=1;fillColor=#dae8fc;strokeColor=#6c8ebf;" vertex="1" parent="1">
          <mxGeometry x="40" y="120" width="120" height="80" as="geometry" />
        </mxCell>
        <mxCell id="Bf5v76IvN_NNOUFubVjB-2" style="edgeStyle=orthogonalEdgeStyle;rounded=1;orthogonalLoop=1;jettySize=auto;html=1;entryX=0;entryY=0.5;entryDx=0;entryDy=0;entryPerimeter=0;curved=0;strokeWidth=2;startArrow=classic;startFill=1;" edge="1" parent="1" source="Bf5v76IvN_NNOUFubVjB-1" target="Bf5v76IvN_NNOUFubVjB-3">
          <mxGeometry relative="1" as="geometry" />
        </mxCell>
        <mxCell id="Bf5v76IvN_NNOUFubVjB-3" value="mongodb1&lt;span style=&quot;background-color: initial;&quot;&gt;:27017&lt;/span&gt;" style="shape=cylinder3;whiteSpace=wrap;html=1;boundedLbl=1;backgroundOutline=1;size=15;fillColor=#d5e8d4;strokeColor=#82b366;" vertex="1" parent="1">
          <mxGeometry x="240" y="120" width="140" height="80" as="geometry" />
        </mxCell>
        <mxCell id="ur4e0LTIpBDlawlua-1K-1" value="&lt;b&gt;&lt;font style=&quot;font-size: 24px;&quot;&gt;Задание 1&lt;/font&gt;&lt;/b&gt;" style="text;html=1;align=center;verticalAlign=middle;resizable=0;points=[];autosize=1;strokeColor=none;fillColor=none;" vertex="1" parent="1">
          <mxGeometry x="344" y="40" width="140" height="40" as="geometry" />
        </mxCell>
        <mxCell id="OiQO8qtPyjOKUVFLuCK9-1" value="" style="group" vertex="1" connectable="0" parent="1">
          <mxGeometry x="40" y="600" width="720" height="520" as="geometry" />
        </mxCell>
        <mxCell id="ESwAO3JPG-umCFg9xx-f-8" value="" style="endArrow=classic;html=1;rounded=1;curved=0;strokeWidth=2;" edge="1" parent="OiQO8qtPyjOKUVFLuCK9-1">
          <mxGeometry width="50" height="50" relative="1" as="geometry">
            <mxPoint as="sourcePoint" />
            <mxPoint x="240" as="targetPoint" />
          </mxGeometry>
        </mxCell>
        <mxCell id="ESwAO3JPG-umCFg9xx-f-9" value="Данные" style="edgeLabel;html=1;align=center;verticalAlign=middle;resizable=0;points=[];" vertex="1" connectable="0" parent="ESwAO3JPG-umCFg9xx-f-8">
          <mxGeometry x="0.0233" y="2" relative="1" as="geometry">
            <mxPoint y="-8" as="offset" />
          </mxGeometry>
        </mxCell>
        <mxCell id="ESwAO3JPG-umCFg9xx-f-10" value="" style="endArrow=classic;html=1;rounded=1;curved=0;strokeWidth=2;strokeColor=#00CC66;" edge="1" parent="OiQO8qtPyjOKUVFLuCK9-1">
          <mxGeometry width="50" height="50" relative="1" as="geometry">
            <mxPoint x="480" as="sourcePoint" />
            <mxPoint x="720" as="targetPoint" />
          </mxGeometry>
        </mxCell>
        <mxCell id="ESwAO3JPG-umCFg9xx-f-11" value="Конфигурация кластера" style="edgeLabel;html=1;align=center;verticalAlign=middle;resizable=0;points=[];" vertex="1" connectable="0" parent="ESwAO3JPG-umCFg9xx-f-10">
          <mxGeometry x="0.0233" y="2" relative="1" as="geometry">
            <mxPoint y="-8" as="offset" />
          </mxGeometry>
        </mxCell>
        <UserObject label="Результаты нагрузочного тестирования" link="&#xa;&lt;div style=&quot;forced-color-adjust: none; color: rgb(0, 0, 0); font-family: Helvetica; font-size: 12px; font-style: normal; font-variant-ligatures: normal; font-variant-caps: normal; font-weight: 700; letter-spacing: normal; orphans: 2; text-align: left; text-indent: 0px; text-transform: none; widows: 2; word-spacing: 0px; -webkit-text-stroke-width: 0px; white-space: normal; background-color: rgb(251, 251, 251); text-decoration-thickness: initial; text-decoration-style: initial; text-decoration-color: initial;&quot;&gt;This collection has&amp;nbsp; 2000&amp;nbsp; documents in total&lt;/div&gt;&lt;div style=&quot;forced-color-adjust: none; color: rgb(0, 0, 0); font-family: Helvetica; font-size: 12px; font-style: normal; font-variant-ligatures: normal; font-variant-caps: normal; font-weight: 700; letter-spacing: normal; orphans: 2; text-align: left; text-indent: 0px; text-transform: none; widows: 2; word-spacing: 0px; -webkit-text-stroke-width: 0px; white-space: normal; background-color: rgb(251, 251, 251); text-decoration-thickness: initial; text-decoration-style: initial; text-decoration-color: initial;&quot;&gt;This collection has&amp;nbsp; 1016&amp;nbsp; documents on&amp;nbsp; shard1&lt;/div&gt;&lt;div style=&quot;forced-color-adjust: none; color: rgb(0, 0, 0); font-family: Helvetica; font-size: 12px; font-style: normal; font-variant-ligatures: normal; font-variant-caps: normal; font-weight: 700; letter-spacing: normal; orphans: 2; text-align: left; text-indent: 0px; text-transform: none; widows: 2; word-spacing: 0px; -webkit-text-stroke-width: 0px; white-space: normal; background-color: rgb(251, 251, 251); text-decoration-thickness: initial; text-decoration-style: initial; text-decoration-color: initial;&quot;&gt;This collection has&amp;nbsp; 984&amp;nbsp; documents on&amp;nbsp; shard2&lt;/div&gt;&lt;div style=&quot;forced-color-adjust: none; color: rgb(0, 0, 0); font-family: Helvetica; font-size: 12px; font-style: normal; font-variant-ligatures: normal; font-variant-caps: normal; font-weight: 700; letter-spacing: normal; orphans: 2; text-align: left; text-indent: 0px; text-transform: none; widows: 2; word-spacing: 0px; -webkit-text-stroke-width: 0px; white-space: normal; background-color: rgb(251, 251, 251); text-decoration-thickness: initial; text-decoration-style: initial; text-decoration-color: initial;&quot;&gt;&lt;br style=&quot;forced-color-adjust: none;&quot;&gt;&lt;/div&gt;&lt;div style=&quot;forced-color-adjust: none; color: rgb(0, 0, 0); font-family: Helvetica; font-size: 12px; font-style: normal; font-variant-ligatures: normal; font-variant-caps: normal; font-weight: 700; letter-spacing: normal; orphans: 2; text-align: left; text-indent: 0px; text-transform: none; widows: 2; word-spacing: 0px; -webkit-text-stroke-width: 0px; white-space: normal; background-color: rgb(251, 251, 251); text-decoration-thickness: initial; text-decoration-style: initial; text-decoration-color: initial;&quot;&gt;siege -b -c 5 -t 60s --rc=/dev/null http://127.0.0.1:8080/&lt;/div&gt;&lt;div style=&quot;forced-color-adjust: none; color: rgb(0, 0, 0); font-family: Helvetica; font-size: 12px; font-style: normal; font-variant-ligatures: normal; font-variant-caps: normal; font-weight: 700; letter-spacing: normal; orphans: 2; text-align: left; text-indent: 0px; text-transform: none; widows: 2; word-spacing: 0px; -webkit-text-stroke-width: 0px; white-space: normal; background-color: rgb(251, 251, 251); text-decoration-thickness: initial; text-decoration-style: initial; text-decoration-color: initial;&quot;&gt;Transactions:&amp;nbsp; &amp;nbsp; &amp;nbsp; &amp;nbsp; &amp;nbsp; &amp;nbsp; &amp;nbsp; &amp;nbsp; &amp;nbsp; 12079 hits&lt;/div&gt;&lt;div style=&quot;forced-color-adjust: none; color: rgb(0, 0, 0); font-family: Helvetica; font-size: 12px; font-style: normal; font-variant-ligatures: normal; font-variant-caps: normal; font-weight: 700; letter-spacing: normal; orphans: 2; text-align: left; text-indent: 0px; text-transform: none; widows: 2; word-spacing: 0px; -webkit-text-stroke-width: 0px; white-space: normal; background-color: rgb(251, 251, 251); text-decoration-thickness: initial; text-decoration-style: initial; text-decoration-color: initial;&quot;&gt;Response time:&amp;nbsp; &amp;nbsp; &amp;nbsp; &amp;nbsp; &amp;nbsp; &amp;nbsp; &amp;nbsp; &amp;nbsp; &amp;nbsp; 0.02 secs&lt;/div&gt;&lt;div style=&quot;forced-color-adjust: none; color: rgb(0, 0, 0); font-family: Helvetica; font-size: 12px; font-style: normal; font-variant-ligatures: normal; font-variant-caps: normal; font-weight: 700; letter-spacing: normal; orphans: 2; text-align: left; text-indent: 0px; text-transform: none; widows: 2; word-spacing: 0px; -webkit-text-stroke-width: 0px; white-space: normal; background-color: rgb(251, 251, 251); text-decoration-thickness: initial; text-decoration-style: initial; text-decoration-color: initial;&quot;&gt;Transaction rate:&amp;nbsp; &amp;nbsp; &amp;nbsp; &amp;nbsp; &amp;nbsp; &amp;nbsp; &amp;nbsp;209.52 trans/sec&lt;/div&gt;&lt;div style=&quot;forced-color-adjust: none; color: rgb(0, 0, 0); font-family: Helvetica; font-size: 12px; font-style: normal; font-variant-ligatures: normal; font-variant-caps: normal; font-weight: 700; letter-spacing: normal; orphans: 2; text-align: left; text-indent: 0px; text-transform: none; widows: 2; word-spacing: 0px; -webkit-text-stroke-width: 0px; white-space: normal; background-color: rgb(251, 251, 251); text-decoration-thickness: initial; text-decoration-style: initial; text-decoration-color: initial;&quot;&gt;Throughput:&amp;nbsp; &amp;nbsp; &amp;nbsp; &amp;nbsp; &amp;nbsp; &amp;nbsp; &amp;nbsp; &amp;nbsp; &amp;nbsp; &amp;nbsp; &amp;nbsp;0.09 MB/sec&lt;/div&gt;&lt;div style=&quot;forced-color-adjust: none; color: rgb(0, 0, 0); font-family: Helvetica; font-size: 12px; font-style: normal; font-variant-ligatures: normal; font-variant-caps: normal; font-weight: 700; letter-spacing: normal; orphans: 2; text-align: left; text-indent: 0px; text-transform: none; widows: 2; word-spacing: 0px; -webkit-text-stroke-width: 0px; white-space: normal; background-color: rgb(251, 251, 251); text-decoration-thickness: initial; text-decoration-style: initial; text-decoration-color: initial;&quot;&gt;Successful transactions:&amp;nbsp; &amp;nbsp; &amp;nbsp; &amp;nbsp;12079&lt;/div&gt;&lt;div style=&quot;forced-color-adjust: none; color: rgb(0, 0, 0); font-family: Helvetica; font-size: 12px; font-style: normal; font-variant-ligatures: normal; font-variant-caps: normal; font-weight: 700; letter-spacing: normal; orphans: 2; text-align: left; text-indent: 0px; text-transform: none; widows: 2; word-spacing: 0px; -webkit-text-stroke-width: 0px; white-space: normal; background-color: rgb(251, 251, 251); text-decoration-thickness: initial; text-decoration-style: initial; text-decoration-color: initial;&quot;&gt;Failed transactions:&amp;nbsp; &amp;nbsp; &amp;nbsp; &amp;nbsp; &amp;nbsp; &amp;nbsp; &amp;nbsp; &amp;nbsp;0&lt;/div&gt;&lt;div style=&quot;forced-color-adjust: none; color: rgb(0, 0, 0); font-family: Helvetica; font-size: 12px; font-style: normal; font-variant-ligatures: normal; font-variant-caps: normal; font-weight: 700; letter-spacing: normal; orphans: 2; text-align: left; text-indent: 0px; text-transform: none; widows: 2; word-spacing: 0px; -webkit-text-stroke-width: 0px; white-space: normal; background-color: rgb(251, 251, 251); text-decoration-thickness: initial; text-decoration-style: initial; text-decoration-color: initial;&quot;&gt;Longest transaction:&amp;nbsp; &amp;nbsp; &amp;nbsp; &amp;nbsp; &amp;nbsp; &amp;nbsp; 0.10&lt;/div&gt;&lt;div style=&quot;forced-color-adjust: none; color: rgb(0, 0, 0); font-family: Helvetica; font-size: 12px; font-style: normal; font-variant-ligatures: normal; font-variant-caps: normal; font-weight: 700; letter-spacing: normal; orphans: 2; text-align: left; text-indent: 0px; text-transform: none; widows: 2; word-spacing: 0px; -webkit-text-stroke-width: 0px; white-space: normal; background-color: rgb(251, 251, 251); text-decoration-thickness: initial; text-decoration-style: initial; text-decoration-color: initial;&quot;&gt;Shortest transaction:&amp;nbsp; &amp;nbsp; &amp;nbsp; &amp;nbsp; &amp;nbsp; &amp;nbsp;0.01&lt;/div&gt;&lt;div style=&quot;forced-color-adjust: none; color: rgb(0, 0, 0); font-family: Helvetica; font-size: 12px; font-style: normal; font-variant-ligatures: normal; font-variant-caps: normal; font-weight: 700; letter-spacing: normal; orphans: 2; text-align: left; text-indent: 0px; text-transform: none; widows: 2; word-spacing: 0px; -webkit-text-stroke-width: 0px; white-space: normal; background-color: rgb(251, 251, 251); text-decoration-thickness: initial; text-decoration-style: initial; text-decoration-color: initial;&quot;&gt;siege -b -c 5 -t 60s --rc=/dev/null http://127.0.0.1:8080/helloDoc/users&lt;/div&gt;&lt;div style=&quot;forced-color-adjust: none; color: rgb(0, 0, 0); font-family: Helvetica; font-size: 12px; font-style: normal; font-variant-ligatures: normal; font-variant-caps: normal; font-weight: 700; letter-spacing: normal; orphans: 2; text-align: left; text-indent: 0px; text-transform: none; widows: 2; word-spacing: 0px; -webkit-text-stroke-width: 0px; white-space: normal; background-color: rgb(251, 251, 251); text-decoration-thickness: initial; text-decoration-style: initial; text-decoration-color: initial;&quot;&gt;Transactions:&amp;nbsp; &amp;nbsp; &amp;nbsp; &amp;nbsp; &amp;nbsp; &amp;nbsp; &amp;nbsp; &amp;nbsp; &amp;nbsp; &amp;nbsp; &amp;nbsp;56 hits&lt;/div&gt;&lt;div style=&quot;forced-color-adjust: none; color: rgb(0, 0, 0); font-family: Helvetica; font-size: 12px; font-style: normal; font-variant-ligatures: normal; font-variant-caps: normal; font-weight: 700; letter-spacing: normal; orphans: 2; text-align: left; text-indent: 0px; text-transform: none; widows: 2; word-spacing: 0px; -webkit-text-stroke-width: 0px; white-space: normal; background-color: rgb(251, 251, 251); text-decoration-thickness: initial; text-decoration-style: initial; text-decoration-color: initial;&quot;&gt;Response time:&amp;nbsp; &amp;nbsp; &amp;nbsp; &amp;nbsp; &amp;nbsp; &amp;nbsp; &amp;nbsp; &amp;nbsp; &amp;nbsp; 5.16 secs&lt;/div&gt;&lt;div style=&quot;forced-color-adjust: none; color: rgb(0, 0, 0); font-family: Helvetica; font-size: 12px; font-style: normal; font-variant-ligatures: normal; font-variant-caps: normal; font-weight: 700; letter-spacing: normal; orphans: 2; text-align: left; text-indent: 0px; text-transform: none; widows: 2; word-spacing: 0px; -webkit-text-stroke-width: 0px; white-space: normal; background-color: rgb(251, 251, 251); text-decoration-thickness: initial; text-decoration-style: initial; text-decoration-color: initial;&quot;&gt;Transaction rate:&amp;nbsp; &amp;nbsp; &amp;nbsp; &amp;nbsp; &amp;nbsp; &amp;nbsp; &amp;nbsp; &amp;nbsp;0.95 trans/sec&lt;/div&gt;&lt;div style=&quot;forced-color-adjust: none; color: rgb(0, 0, 0); font-family: Helvetica; font-size: 12px; font-style: normal; font-variant-ligatures: normal; font-variant-caps: normal; font-weight: 700; letter-spacing: normal; orphans: 2; text-align: left; text-indent: 0px; text-transform: none; widows: 2; word-spacing: 0px; -webkit-text-stroke-width: 0px; white-space: normal; background-color: rgb(251, 251, 251); text-decoration-thickness: initial; text-decoration-style: initial; text-decoration-color: initial;&quot;&gt;Throughput:&amp;nbsp; &amp;nbsp; &amp;nbsp; &amp;nbsp; &amp;nbsp; &amp;nbsp; &amp;nbsp; &amp;nbsp; &amp;nbsp; &amp;nbsp; &amp;nbsp;0.05 MB/sec&lt;/div&gt;&lt;div style=&quot;forced-color-adjust: none; color: rgb(0, 0, 0); font-family: Helvetica; font-size: 12px; font-style: normal; font-variant-ligatures: normal; font-variant-caps: normal; font-weight: 700; letter-spacing: normal; orphans: 2; text-align: left; text-indent: 0px; text-transform: none; widows: 2; word-spacing: 0px; -webkit-text-stroke-width: 0px; white-space: normal; background-color: rgb(251, 251, 251); text-decoration-thickness: initial; text-decoration-style: initial; text-decoration-color: initial;&quot;&gt;Successful transactions:&amp;nbsp; &amp;nbsp; &amp;nbsp; &amp;nbsp; &amp;nbsp; 56&lt;/div&gt;&lt;div style=&quot;forced-color-adjust: none; color: rgb(0, 0, 0); font-family: Helvetica; font-size: 12px; font-style: normal; font-variant-ligatures: normal; font-variant-caps: normal; font-weight: 700; letter-spacing: normal; orphans: 2; text-align: left; text-indent: 0px; text-transform: none; widows: 2; word-spacing: 0px; -webkit-text-stroke-width: 0px; white-space: normal; background-color: rgb(251, 251, 251); text-decoration-thickness: initial; text-decoration-style: initial; text-decoration-color: initial;&quot;&gt;Failed transactions:&amp;nbsp; &amp;nbsp; &amp;nbsp; &amp;nbsp; &amp;nbsp; &amp;nbsp; &amp;nbsp; &amp;nbsp;0&lt;/div&gt;&lt;div style=&quot;forced-color-adjust: none; color: rgb(0, 0, 0); font-family: Helvetica; font-size: 12px; font-style: normal; font-variant-ligatures: normal; font-variant-caps: normal; font-weight: 700; letter-spacing: normal; orphans: 2; text-align: left; text-indent: 0px; text-transform: none; widows: 2; word-spacing: 0px; -webkit-text-stroke-width: 0px; white-space: normal; background-color: rgb(251, 251, 251); text-decoration-thickness: initial; text-decoration-style: initial; text-decoration-color: initial;&quot;&gt;Longest transaction:&amp;nbsp; &amp;nbsp; &amp;nbsp; &amp;nbsp; &amp;nbsp; &amp;nbsp; 8.08&lt;/div&gt;&lt;div style=&quot;forced-color-adjust: none; color: rgb(0, 0, 0); font-family: Helvetica; font-size: 12px; font-style: normal; font-variant-ligatures: normal; font-variant-caps: normal; font-weight: 700; letter-spacing: normal; orphans: 2; text-align: left; text-indent: 0px; text-transform: none; widows: 2; word-spacing: 0px; -webkit-text-stroke-width: 0px; white-space: normal; background-color: rgb(251, 251, 251); text-decoration-thickness: initial; text-decoration-style: initial; text-decoration-color: initial;&quot;&gt;Shortest transaction:&amp;nbsp; &amp;nbsp; &amp;nbsp; &amp;nbsp; &amp;nbsp; &amp;nbsp;4.04&lt;/div&gt;&lt;div style=&quot;forced-color-adjust: none; color: rgb(0, 0, 0); font-family: Helvetica; font-size: 12px; font-style: normal; font-variant-ligatures: normal; font-variant-caps: normal; font-weight: 700; letter-spacing: normal; orphans: 2; text-align: left; text-indent: 0px; text-transform: none; widows: 2; word-spacing: 0px; -webkit-text-stroke-width: 0px; white-space: normal; background-color: rgb(251, 251, 251); text-decoration-thickness: initial; text-decoration-style: initial; text-decoration-color: initial;&quot;&gt;siege -b -c 5 -t 60s --rc=/dev/null --file=/home/boris/repos/architecture-sprint-2/./urls.lst&lt;/div&gt;&lt;div style=&quot;forced-color-adjust: none; color: rgb(0, 0, 0); font-family: Helvetica; font-size: 12px; font-style: normal; font-variant-ligatures: normal; font-variant-caps: normal; font-weight: 700; letter-spacing: normal; orphans: 2; text-align: left; text-indent: 0px; text-transform: none; widows: 2; word-spacing: 0px; -webkit-text-stroke-width: 0px; white-space: normal; background-color: rgb(251, 251, 251); text-decoration-thickness: initial; text-decoration-style: initial; text-decoration-color: initial;&quot;&gt;Transactions:&amp;nbsp; &amp;nbsp; &amp;nbsp; &amp;nbsp; &amp;nbsp; &amp;nbsp; &amp;nbsp; &amp;nbsp; &amp;nbsp; 25027 hits&lt;/div&gt;&lt;div style=&quot;forced-color-adjust: none; color: rgb(0, 0, 0); font-family: Helvetica; font-size: 12px; font-style: normal; font-variant-ligatures: normal; font-variant-caps: normal; font-weight: 700; letter-spacing: normal; orphans: 2; text-align: left; text-indent: 0px; text-transform: none; widows: 2; word-spacing: 0px; -webkit-text-stroke-width: 0px; white-space: normal; background-color: rgb(251, 251, 251); text-decoration-thickness: initial; text-decoration-style: initial; text-decoration-color: initial;&quot;&gt;Response time:&amp;nbsp; &amp;nbsp; &amp;nbsp; &amp;nbsp; &amp;nbsp; &amp;nbsp; &amp;nbsp; &amp;nbsp; &amp;nbsp; 0.01 secs&lt;/div&gt;&lt;div style=&quot;forced-color-adjust: none; color: rgb(0, 0, 0); font-family: Helvetica; font-size: 12px; font-style: normal; font-variant-ligatures: normal; font-variant-caps: normal; font-weight: 700; letter-spacing: normal; orphans: 2; text-align: left; text-indent: 0px; text-transform: none; widows: 2; word-spacing: 0px; -webkit-text-stroke-width: 0px; white-space: normal; background-color: rgb(251, 251, 251); text-decoration-thickness: initial; text-decoration-style: initial; text-decoration-color: initial;&quot;&gt;Transaction rate:&amp;nbsp; &amp;nbsp; &amp;nbsp; &amp;nbsp; &amp;nbsp; &amp;nbsp; &amp;nbsp;428.40 trans/sec&lt;/div&gt;&lt;div style=&quot;forced-color-adjust: none; color: rgb(0, 0, 0); font-family: Helvetica; font-size: 12px; font-style: normal; font-variant-ligatures: normal; font-variant-caps: normal; font-weight: 700; letter-spacing: normal; orphans: 2; text-align: left; text-indent: 0px; text-transform: none; widows: 2; word-spacing: 0px; -webkit-text-stroke-width: 0px; white-space: normal; background-color: rgb(251, 251, 251); text-decoration-thickness: initial; text-decoration-style: initial; text-decoration-color: initial;&quot;&gt;Throughput:&amp;nbsp; &amp;nbsp; &amp;nbsp; &amp;nbsp; &amp;nbsp; &amp;nbsp; &amp;nbsp; &amp;nbsp; &amp;nbsp; &amp;nbsp; &amp;nbsp;0.02 MB/sec&lt;/div&gt;&lt;div style=&quot;forced-color-adjust: none; color: rgb(0, 0, 0); font-family: Helvetica; font-size: 12px; font-style: normal; font-variant-ligatures: normal; font-variant-caps: normal; font-weight: 700; letter-spacing: normal; orphans: 2; text-align: left; text-indent: 0px; text-transform: none; widows: 2; word-spacing: 0px; -webkit-text-stroke-width: 0px; white-space: normal; background-color: rgb(251, 251, 251); text-decoration-thickness: initial; text-decoration-style: initial; text-decoration-color: initial;&quot;&gt;Successful transactions:&amp;nbsp; &amp;nbsp; &amp;nbsp; &amp;nbsp;25027&lt;/div&gt;&lt;div style=&quot;forced-color-adjust: none; color: rgb(0, 0, 0); font-family: Helvetica; font-size: 12px; font-style: normal; font-variant-ligatures: normal; font-variant-caps: normal; font-weight: 700; letter-spacing: normal; orphans: 2; text-align: left; text-indent: 0px; text-transform: none; widows: 2; word-spacing: 0px; -webkit-text-stroke-width: 0px; white-space: normal; background-color: rgb(251, 251, 251); text-decoration-thickness: initial; text-decoration-style: initial; text-decoration-color: initial;&quot;&gt;Failed transactions:&amp;nbsp; &amp;nbsp; &amp;nbsp; &amp;nbsp; &amp;nbsp; &amp;nbsp; &amp;nbsp; &amp;nbsp;0&lt;/div&gt;&lt;div style=&quot;forced-color-adjust: none; color: rgb(0, 0, 0); font-family: Helvetica; font-size: 12px; font-style: normal; font-variant-ligatures: normal; font-variant-caps: normal; font-weight: 700; letter-spacing: normal; orphans: 2; text-align: left; text-indent: 0px; text-transform: none; widows: 2; word-spacing: 0px; -webkit-text-stroke-width: 0px; white-space: normal; background-color: rgb(251, 251, 251); text-decoration-thickness: initial; text-decoration-style: initial; text-decoration-color: initial;&quot;&gt;Longest transaction:&amp;nbsp; &amp;nbsp; &amp;nbsp; &amp;nbsp; &amp;nbsp; &amp;nbsp; 2.52&lt;/div&gt;&lt;div style=&quot;forced-color-adjust: none; color: rgb(0, 0, 0); font-family: Helvetica; font-size: 12px; font-style: normal; font-variant-ligatures: normal; font-variant-caps: normal; font-weight: 700; letter-spacing: normal; orphans: 2; text-align: left; text-indent: 0px; text-transform: none; widows: 2; word-spacing: 0px; -webkit-text-stroke-width: 0px; white-space: normal; background-color: rgb(251, 251, 251); text-decoration-thickness: initial; text-decoration-style: initial; text-decoration-color: initial;&quot;&gt;Shortest transaction:&amp;nbsp; &amp;nbsp; &amp;nbsp; &amp;nbsp; &amp;nbsp; &amp;nbsp;0.00&lt;/div&gt;&#xa;&#xa;" id="ESwAO3JPG-umCFg9xx-f-12">
          <mxCell style="swimlane;whiteSpace=wrap;html=1;verticalAlign=top;container=0;align=center;" vertex="1" parent="OiQO8qtPyjOKUVFLuCK9-1">
            <mxGeometry y="40" width="720" height="480" as="geometry" />
          </mxCell>
        </UserObject>
        <UserObject label="&lt;pre style=&quot;forced-color-adjust: none; color: rgb(0, 0, 0); font-family: Helvetica; font-size: 12px; font-style: normal; font-variant-ligatures: normal; font-variant-caps: normal; letter-spacing: normal; orphans: 2; text-indent: 0px; text-transform: none; widows: 2; word-spacing: 0px; -webkit-text-stroke-width: 0px; white-space: normal; background-color: rgb(251, 251, 251); text-decoration-thickness: initial; text-decoration-style: initial; text-decoration-color: initial;&quot;&gt;&lt;pre style=&quot;&quot;&gt;&lt;b&gt;This collection has&amp;nbsp; 2000&amp;nbsp; documents in total&lt;br&gt;&lt;br&gt;siege -b -c 5 -t 60s --rc=/dev/null http://127.0.0.1:8080/&lt;br&gt;Transactions:&amp;nbsp; &amp;nbsp; &amp;nbsp; &amp;nbsp; &amp;nbsp; &amp;nbsp; &amp;nbsp; &amp;nbsp; &amp;nbsp; 18795 hits&lt;br&gt;Response time:&amp;nbsp; &amp;nbsp; &amp;nbsp; &amp;nbsp; &amp;nbsp; &amp;nbsp; &amp;nbsp; &amp;nbsp; &amp;nbsp; 0.02 secs&lt;br&gt;Transaction rate:&amp;nbsp; &amp;nbsp; &amp;nbsp; &amp;nbsp; &amp;nbsp; &amp;nbsp; &amp;nbsp;320.30 trans/sec&lt;br&gt;Throughput:&amp;nbsp; &amp;nbsp; &amp;nbsp; &amp;nbsp; &amp;nbsp; &amp;nbsp; &amp;nbsp; &amp;nbsp; &amp;nbsp; &amp;nbsp; &amp;nbsp;0.12 MB/sec&lt;br&gt;Successful transactions:&amp;nbsp; &amp;nbsp; &amp;nbsp; &amp;nbsp;18795&lt;br&gt;Failed transactions:&amp;nbsp; &amp;nbsp; &amp;nbsp; &amp;nbsp; &amp;nbsp; &amp;nbsp; &amp;nbsp; &amp;nbsp;0&lt;br&gt;Longest transaction:&amp;nbsp; &amp;nbsp; &amp;nbsp; &amp;nbsp; &amp;nbsp; &amp;nbsp; 0.12&lt;br&gt;Shortest transaction:&amp;nbsp; &amp;nbsp; &amp;nbsp; &amp;nbsp; &amp;nbsp; &amp;nbsp;0.00&lt;br&gt;siege -b -c 5 -t 60s --rc=/dev/null http://127.0.0.1:8080/helloDoc/users&lt;br&gt;Transactions:&amp;nbsp; &amp;nbsp; &amp;nbsp; &amp;nbsp; &amp;nbsp; &amp;nbsp; &amp;nbsp; &amp;nbsp; &amp;nbsp; &amp;nbsp; &amp;nbsp;53 hits&lt;br&gt;Response time:&amp;nbsp; &amp;nbsp; &amp;nbsp; &amp;nbsp; &amp;nbsp; &amp;nbsp; &amp;nbsp; &amp;nbsp; &amp;nbsp; 5.17 secs&lt;br&gt;Transaction rate:&amp;nbsp; &amp;nbsp; &amp;nbsp; &amp;nbsp; &amp;nbsp; &amp;nbsp; &amp;nbsp; &amp;nbsp;0.91 trans/sec&lt;br&gt;Throughput:&amp;nbsp; &amp;nbsp; &amp;nbsp; &amp;nbsp; &amp;nbsp; &amp;nbsp; &amp;nbsp; &amp;nbsp; &amp;nbsp; &amp;nbsp; &amp;nbsp;0.05 MB/sec&lt;br&gt;Successful transactions:&amp;nbsp; &amp;nbsp; &amp;nbsp; &amp;nbsp; &amp;nbsp; 53&lt;br&gt;Failed transactions:&amp;nbsp; &amp;nbsp; &amp;nbsp; &amp;nbsp; &amp;nbsp; &amp;nbsp; &amp;nbsp; &amp;nbsp;0&lt;br&gt;Longest transaction:&amp;nbsp; &amp;nbsp; &amp;nbsp; &amp;nbsp; &amp;nbsp; &amp;nbsp; 8.09&lt;br&gt;Shortest transaction:&amp;nbsp; &amp;nbsp; &amp;nbsp; &amp;nbsp; &amp;nbsp; &amp;nbsp;4.04&lt;br&gt;siege -b -c 5 -t 60s --rc=/dev/null --file=/home/boris/repos/architecture-sprint-2/./urls.lst&lt;br&gt;Transactions:&amp;nbsp; &amp;nbsp; &amp;nbsp; &amp;nbsp; &amp;nbsp; &amp;nbsp; &amp;nbsp; &amp;nbsp; &amp;nbsp; 32379 hits&lt;br&gt;Response time:&amp;nbsp; &amp;nbsp; &amp;nbsp; &amp;nbsp; &amp;nbsp; &amp;nbsp; &amp;nbsp; &amp;nbsp; &amp;nbsp; 0.01 secs&lt;br&gt;Transaction rate:&amp;nbsp; &amp;nbsp; &amp;nbsp; &amp;nbsp; &amp;nbsp; &amp;nbsp; &amp;nbsp;554.15 trans/sec&lt;br&gt;Throughput:&amp;nbsp; &amp;nbsp; &amp;nbsp; &amp;nbsp; &amp;nbsp; &amp;nbsp; &amp;nbsp; &amp;nbsp; &amp;nbsp; &amp;nbsp; &amp;nbsp;0.03 MB/sec&lt;br&gt;Successful transactions:&amp;nbsp; &amp;nbsp; &amp;nbsp; &amp;nbsp;32379&lt;br&gt;Failed transactions:&amp;nbsp; &amp;nbsp; &amp;nbsp; &amp;nbsp; &amp;nbsp; &amp;nbsp; &amp;nbsp; &amp;nbsp;0&lt;br&gt;Longest transaction:&amp;nbsp; &amp;nbsp; &amp;nbsp; &amp;nbsp; &amp;nbsp; &amp;nbsp; 0.21&lt;br&gt;Shortest transaction:&amp;nbsp; &amp;nbsp; &amp;nbsp; &amp;nbsp; &amp;nbsp; &amp;nbsp;0.00&lt;/b&gt;&lt;/pre&gt;&lt;/pre&gt;&lt;div&gt;&lt;br&gt;&lt;/div&gt;" link="&#xa;&lt;div style=&quot;forced-color-adjust: none; color: rgb(0, 0, 0); font-family: Helvetica; font-size: 12px; font-style: normal; font-variant-ligatures: normal; font-variant-caps: normal; font-weight: 700; letter-spacing: normal; orphans: 2; text-align: left; text-indent: 0px; text-transform: none; widows: 2; word-spacing: 0px; -webkit-text-stroke-width: 0px; white-space: normal; background-color: rgb(251, 251, 251); text-decoration-thickness: initial; text-decoration-style: initial; text-decoration-color: initial;&quot;&gt;This collection has&amp;nbsp; 2000&amp;nbsp; documents in total&lt;/div&gt;&lt;div style=&quot;forced-color-adjust: none; color: rgb(0, 0, 0); font-family: Helvetica; font-size: 12px; font-style: normal; font-variant-ligatures: normal; font-variant-caps: normal; font-weight: 700; letter-spacing: normal; orphans: 2; text-align: left; text-indent: 0px; text-transform: none; widows: 2; word-spacing: 0px; -webkit-text-stroke-width: 0px; white-space: normal; background-color: rgb(251, 251, 251); text-decoration-thickness: initial; text-decoration-style: initial; text-decoration-color: initial;&quot;&gt;&lt;br style=&quot;forced-color-adjust: none;&quot;&gt;&lt;/div&gt;&lt;div style=&quot;forced-color-adjust: none; color: rgb(0, 0, 0); font-family: Helvetica; font-size: 12px; font-style: normal; font-variant-ligatures: normal; font-variant-caps: normal; font-weight: 700; letter-spacing: normal; orphans: 2; text-align: left; text-indent: 0px; text-transform: none; widows: 2; word-spacing: 0px; -webkit-text-stroke-width: 0px; white-space: normal; background-color: rgb(251, 251, 251); text-decoration-thickness: initial; text-decoration-style: initial; text-decoration-color: initial;&quot;&gt;siege -b -c 5 -t 60s --rc=/dev/null http://127.0.0.1:8080/&lt;/div&gt;&lt;div style=&quot;forced-color-adjust: none; color: rgb(0, 0, 0); font-family: Helvetica; font-size: 12px; font-style: normal; font-variant-ligatures: normal; font-variant-caps: normal; font-weight: 700; letter-spacing: normal; orphans: 2; text-align: left; text-indent: 0px; text-transform: none; widows: 2; word-spacing: 0px; -webkit-text-stroke-width: 0px; white-space: normal; background-color: rgb(251, 251, 251); text-decoration-thickness: initial; text-decoration-style: initial; text-decoration-color: initial;&quot;&gt;Transactions:&amp;nbsp; &amp;nbsp; &amp;nbsp; &amp;nbsp; &amp;nbsp; &amp;nbsp; &amp;nbsp; &amp;nbsp; &amp;nbsp; 18795 hits&lt;/div&gt;&lt;div style=&quot;forced-color-adjust: none; color: rgb(0, 0, 0); font-family: Helvetica; font-size: 12px; font-style: normal; font-variant-ligatures: normal; font-variant-caps: normal; font-weight: 700; letter-spacing: normal; orphans: 2; text-align: left; text-indent: 0px; text-transform: none; widows: 2; word-spacing: 0px; -webkit-text-stroke-width: 0px; white-space: normal; background-color: rgb(251, 251, 251); text-decoration-thickness: initial; text-decoration-style: initial; text-decoration-color: initial;&quot;&gt;Response time:&amp;nbsp; &amp;nbsp; &amp;nbsp; &amp;nbsp; &amp;nbsp; &amp;nbsp; &amp;nbsp; &amp;nbsp; &amp;nbsp; 0.02 secs&lt;/div&gt;&lt;div style=&quot;forced-color-adjust: none; color: rgb(0, 0, 0); font-family: Helvetica; font-size: 12px; font-style: normal; font-variant-ligatures: normal; font-variant-caps: normal; font-weight: 700; letter-spacing: normal; orphans: 2; text-align: left; text-indent: 0px; text-transform: none; widows: 2; word-spacing: 0px; -webkit-text-stroke-width: 0px; white-space: normal; background-color: rgb(251, 251, 251); text-decoration-thickness: initial; text-decoration-style: initial; text-decoration-color: initial;&quot;&gt;Transaction rate:&amp;nbsp; &amp;nbsp; &amp;nbsp; &amp;nbsp; &amp;nbsp; &amp;nbsp; &amp;nbsp;320.30 trans/sec&lt;/div&gt;&lt;div style=&quot;forced-color-adjust: none; color: rgb(0, 0, 0); font-family: Helvetica; font-size: 12px; font-style: normal; font-variant-ligatures: normal; font-variant-caps: normal; font-weight: 700; letter-spacing: normal; orphans: 2; text-align: left; text-indent: 0px; text-transform: none; widows: 2; word-spacing: 0px; -webkit-text-stroke-width: 0px; white-space: normal; background-color: rgb(251, 251, 251); text-decoration-thickness: initial; text-decoration-style: initial; text-decoration-color: initial;&quot;&gt;Throughput:&amp;nbsp; &amp;nbsp; &amp;nbsp; &amp;nbsp; &amp;nbsp; &amp;nbsp; &amp;nbsp; &amp;nbsp; &amp;nbsp; &amp;nbsp; &amp;nbsp;0.12 MB/sec&lt;/div&gt;&lt;div style=&quot;forced-color-adjust: none; color: rgb(0, 0, 0); font-family: Helvetica; font-size: 12px; font-style: normal; font-variant-ligatures: normal; font-variant-caps: normal; font-weight: 700; letter-spacing: normal; orphans: 2; text-align: left; text-indent: 0px; text-transform: none; widows: 2; word-spacing: 0px; -webkit-text-stroke-width: 0px; white-space: normal; background-color: rgb(251, 251, 251); text-decoration-thickness: initial; text-decoration-style: initial; text-decoration-color: initial;&quot;&gt;Successful transactions:&amp;nbsp; &amp;nbsp; &amp;nbsp; &amp;nbsp;18795&lt;/div&gt;&lt;div style=&quot;forced-color-adjust: none; color: rgb(0, 0, 0); font-family: Helvetica; font-size: 12px; font-style: normal; font-variant-ligatures: normal; font-variant-caps: normal; font-weight: 700; letter-spacing: normal; orphans: 2; text-align: left; text-indent: 0px; text-transform: none; widows: 2; word-spacing: 0px; -webkit-text-stroke-width: 0px; white-space: normal; background-color: rgb(251, 251, 251); text-decoration-thickness: initial; text-decoration-style: initial; text-decoration-color: initial;&quot;&gt;Failed transactions:&amp;nbsp; &amp;nbsp; &amp;nbsp; &amp;nbsp; &amp;nbsp; &amp;nbsp; &amp;nbsp; &amp;nbsp;0&lt;/div&gt;&lt;div style=&quot;forced-color-adjust: none; color: rgb(0, 0, 0); font-family: Helvetica; font-size: 12px; font-style: normal; font-variant-ligatures: normal; font-variant-caps: normal; font-weight: 700; letter-spacing: normal; orphans: 2; text-align: left; text-indent: 0px; text-transform: none; widows: 2; word-spacing: 0px; -webkit-text-stroke-width: 0px; white-space: normal; background-color: rgb(251, 251, 251); text-decoration-thickness: initial; text-decoration-style: initial; text-decoration-color: initial;&quot;&gt;Longest transaction:&amp;nbsp; &amp;nbsp; &amp;nbsp; &amp;nbsp; &amp;nbsp; &amp;nbsp; 0.12&lt;/div&gt;&lt;div style=&quot;forced-color-adjust: none; color: rgb(0, 0, 0); font-family: Helvetica; font-size: 12px; font-style: normal; font-variant-ligatures: normal; font-variant-caps: normal; font-weight: 700; letter-spacing: normal; orphans: 2; text-align: left; text-indent: 0px; text-transform: none; widows: 2; word-spacing: 0px; -webkit-text-stroke-width: 0px; white-space: normal; background-color: rgb(251, 251, 251); text-decoration-thickness: initial; text-decoration-style: initial; text-decoration-color: initial;&quot;&gt;Shortest transaction:&amp;nbsp; &amp;nbsp; &amp;nbsp; &amp;nbsp; &amp;nbsp; &amp;nbsp;0.00&lt;/div&gt;&lt;div style=&quot;forced-color-adjust: none; color: rgb(0, 0, 0); font-family: Helvetica; font-size: 12px; font-style: normal; font-variant-ligatures: normal; font-variant-caps: normal; font-weight: 700; letter-spacing: normal; orphans: 2; text-align: left; text-indent: 0px; text-transform: none; widows: 2; word-spacing: 0px; -webkit-text-stroke-width: 0px; white-space: normal; background-color: rgb(251, 251, 251); text-decoration-thickness: initial; text-decoration-style: initial; text-decoration-color: initial;&quot;&gt;siege -b -c 5 -t 60s --rc=/dev/null http://127.0.0.1:8080/helloDoc/users&lt;/div&gt;&lt;div style=&quot;forced-color-adjust: none; color: rgb(0, 0, 0); font-family: Helvetica; font-size: 12px; font-style: normal; font-variant-ligatures: normal; font-variant-caps: normal; font-weight: 700; letter-spacing: normal; orphans: 2; text-align: left; text-indent: 0px; text-transform: none; widows: 2; word-spacing: 0px; -webkit-text-stroke-width: 0px; white-space: normal; background-color: rgb(251, 251, 251); text-decoration-thickness: initial; text-decoration-style: initial; text-decoration-color: initial;&quot;&gt;Transactions:&amp;nbsp; &amp;nbsp; &amp;nbsp; &amp;nbsp; &amp;nbsp; &amp;nbsp; &amp;nbsp; &amp;nbsp; &amp;nbsp; &amp;nbsp; &amp;nbsp;53 hits&lt;/div&gt;&lt;div style=&quot;forced-color-adjust: none; color: rgb(0, 0, 0); font-family: Helvetica; font-size: 12px; font-style: normal; font-variant-ligatures: normal; font-variant-caps: normal; font-weight: 700; letter-spacing: normal; orphans: 2; text-align: left; text-indent: 0px; text-transform: none; widows: 2; word-spacing: 0px; -webkit-text-stroke-width: 0px; white-space: normal; background-color: rgb(251, 251, 251); text-decoration-thickness: initial; text-decoration-style: initial; text-decoration-color: initial;&quot;&gt;Response time:&amp;nbsp; &amp;nbsp; &amp;nbsp; &amp;nbsp; &amp;nbsp; &amp;nbsp; &amp;nbsp; &amp;nbsp; &amp;nbsp; 5.17 secs&lt;/div&gt;&lt;div style=&quot;forced-color-adjust: none; color: rgb(0, 0, 0); font-family: Helvetica; font-size: 12px; font-style: normal; font-variant-ligatures: normal; font-variant-caps: normal; font-weight: 700; letter-spacing: normal; orphans: 2; text-align: left; text-indent: 0px; text-transform: none; widows: 2; word-spacing: 0px; -webkit-text-stroke-width: 0px; white-space: normal; background-color: rgb(251, 251, 251); text-decoration-thickness: initial; text-decoration-style: initial; text-decoration-color: initial;&quot;&gt;Transaction rate:&amp;nbsp; &amp;nbsp; &amp;nbsp; &amp;nbsp; &amp;nbsp; &amp;nbsp; &amp;nbsp; &amp;nbsp;0.91 trans/sec&lt;/div&gt;&lt;div style=&quot;forced-color-adjust: none; color: rgb(0, 0, 0); font-family: Helvetica; font-size: 12px; font-style: normal; font-variant-ligatures: normal; font-variant-caps: normal; font-weight: 700; letter-spacing: normal; orphans: 2; text-align: left; text-indent: 0px; text-transform: none; widows: 2; word-spacing: 0px; -webkit-text-stroke-width: 0px; white-space: normal; background-color: rgb(251, 251, 251); text-decoration-thickness: initial; text-decoration-style: initial; text-decoration-color: initial;&quot;&gt;Throughput:&amp;nbsp; &amp;nbsp; &amp;nbsp; &amp;nbsp; &amp;nbsp; &amp;nbsp; &amp;nbsp; &amp;nbsp; &amp;nbsp; &amp;nbsp; &amp;nbsp;0.05 MB/sec&lt;/div&gt;&lt;div style=&quot;forced-color-adjust: none; color: rgb(0, 0, 0); font-family: Helvetica; font-size: 12px; font-style: normal; font-variant-ligatures: normal; font-variant-caps: normal; font-weight: 700; letter-spacing: normal; orphans: 2; text-align: left; text-indent: 0px; text-transform: none; widows: 2; word-spacing: 0px; -webkit-text-stroke-width: 0px; white-space: normal; background-color: rgb(251, 251, 251); text-decoration-thickness: initial; text-decoration-style: initial; text-decoration-color: initial;&quot;&gt;Successful transactions:&amp;nbsp; &amp;nbsp; &amp;nbsp; &amp;nbsp; &amp;nbsp; 53&lt;/div&gt;&lt;div style=&quot;forced-color-adjust: none; color: rgb(0, 0, 0); font-family: Helvetica; font-size: 12px; font-style: normal; font-variant-ligatures: normal; font-variant-caps: normal; font-weight: 700; letter-spacing: normal; orphans: 2; text-align: left; text-indent: 0px; text-transform: none; widows: 2; word-spacing: 0px; -webkit-text-stroke-width: 0px; white-space: normal; background-color: rgb(251, 251, 251); text-decoration-thickness: initial; text-decoration-style: initial; text-decoration-color: initial;&quot;&gt;Failed transactions:&amp;nbsp; &amp;nbsp; &amp;nbsp; &amp;nbsp; &amp;nbsp; &amp;nbsp; &amp;nbsp; &amp;nbsp;0&lt;/div&gt;&lt;div style=&quot;forced-color-adjust: none; color: rgb(0, 0, 0); font-family: Helvetica; font-size: 12px; font-style: normal; font-variant-ligatures: normal; font-variant-caps: normal; font-weight: 700; letter-spacing: normal; orphans: 2; text-align: left; text-indent: 0px; text-transform: none; widows: 2; word-spacing: 0px; -webkit-text-stroke-width: 0px; white-space: normal; background-color: rgb(251, 251, 251); text-decoration-thickness: initial; text-decoration-style: initial; text-decoration-color: initial;&quot;&gt;Longest transaction:&amp;nbsp; &amp;nbsp; &amp;nbsp; &amp;nbsp; &amp;nbsp; &amp;nbsp; 8.09&lt;/div&gt;&lt;div style=&quot;forced-color-adjust: none; color: rgb(0, 0, 0); font-family: Helvetica; font-size: 12px; font-style: normal; font-variant-ligatures: normal; font-variant-caps: normal; font-weight: 700; letter-spacing: normal; orphans: 2; text-align: left; text-indent: 0px; text-transform: none; widows: 2; word-spacing: 0px; -webkit-text-stroke-width: 0px; white-space: normal; background-color: rgb(251, 251, 251); text-decoration-thickness: initial; text-decoration-style: initial; text-decoration-color: initial;&quot;&gt;Shortest transaction:&amp;nbsp; &amp;nbsp; &amp;nbsp; &amp;nbsp; &amp;nbsp; &amp;nbsp;4.04&lt;/div&gt;&lt;div style=&quot;forced-color-adjust: none; color: rgb(0, 0, 0); font-family: Helvetica; font-size: 12px; font-style: normal; font-variant-ligatures: normal; font-variant-caps: normal; font-weight: 700; letter-spacing: normal; orphans: 2; text-align: left; text-indent: 0px; text-transform: none; widows: 2; word-spacing: 0px; -webkit-text-stroke-width: 0px; white-space: normal; background-color: rgb(251, 251, 251); text-decoration-thickness: initial; text-decoration-style: initial; text-decoration-color: initial;&quot;&gt;siege -b -c 5 -t 60s --rc=/dev/null --file=/home/boris/repos/architecture-sprint-2/./urls.lst&lt;/div&gt;&lt;div style=&quot;forced-color-adjust: none; color: rgb(0, 0, 0); font-family: Helvetica; font-size: 12px; font-style: normal; font-variant-ligatures: normal; font-variant-caps: normal; font-weight: 700; letter-spacing: normal; orphans: 2; text-align: left; text-indent: 0px; text-transform: none; widows: 2; word-spacing: 0px; -webkit-text-stroke-width: 0px; white-space: normal; background-color: rgb(251, 251, 251); text-decoration-thickness: initial; text-decoration-style: initial; text-decoration-color: initial;&quot;&gt;Transactions:&amp;nbsp; &amp;nbsp; &amp;nbsp; &amp;nbsp; &amp;nbsp; &amp;nbsp; &amp;nbsp; &amp;nbsp; &amp;nbsp; 32379 hits&lt;/div&gt;&lt;div style=&quot;forced-color-adjust: none; color: rgb(0, 0, 0); font-family: Helvetica; font-size: 12px; font-style: normal; font-variant-ligatures: normal; font-variant-caps: normal; font-weight: 700; letter-spacing: normal; orphans: 2; text-align: left; text-indent: 0px; text-transform: none; widows: 2; word-spacing: 0px; -webkit-text-stroke-width: 0px; white-space: normal; background-color: rgb(251, 251, 251); text-decoration-thickness: initial; text-decoration-style: initial; text-decoration-color: initial;&quot;&gt;Response time:&amp;nbsp; &amp;nbsp; &amp;nbsp; &amp;nbsp; &amp;nbsp; &amp;nbsp; &amp;nbsp; &amp;nbsp; &amp;nbsp; 0.01 secs&lt;/div&gt;&lt;div style=&quot;forced-color-adjust: none; color: rgb(0, 0, 0); font-family: Helvetica; font-size: 12px; font-style: normal; font-variant-ligatures: normal; font-variant-caps: normal; font-weight: 700; letter-spacing: normal; orphans: 2; text-align: left; text-indent: 0px; text-transform: none; widows: 2; word-spacing: 0px; -webkit-text-stroke-width: 0px; white-space: normal; background-color: rgb(251, 251, 251); text-decoration-thickness: initial; text-decoration-style: initial; text-decoration-color: initial;&quot;&gt;Transaction rate:&amp;nbsp; &amp;nbsp; &amp;nbsp; &amp;nbsp; &amp;nbsp; &amp;nbsp; &amp;nbsp;554.15 trans/sec&lt;/div&gt;&lt;div style=&quot;forced-color-adjust: none; color: rgb(0, 0, 0); font-family: Helvetica; font-size: 12px; font-style: normal; font-variant-ligatures: normal; font-variant-caps: normal; font-weight: 700; letter-spacing: normal; orphans: 2; text-align: left; text-indent: 0px; text-transform: none; widows: 2; word-spacing: 0px; -webkit-text-stroke-width: 0px; white-space: normal; background-color: rgb(251, 251, 251); text-decoration-thickness: initial; text-decoration-style: initial; text-decoration-color: initial;&quot;&gt;Throughput:&amp;nbsp; &amp;nbsp; &amp;nbsp; &amp;nbsp; &amp;nbsp; &amp;nbsp; &amp;nbsp; &amp;nbsp; &amp;nbsp; &amp;nbsp; &amp;nbsp;0.03 MB/sec&lt;/div&gt;&lt;div style=&quot;forced-color-adjust: none; color: rgb(0, 0, 0); font-family: Helvetica; font-size: 12px; font-style: normal; font-variant-ligatures: normal; font-variant-caps: normal; font-weight: 700; letter-spacing: normal; orphans: 2; text-align: left; text-indent: 0px; text-transform: none; widows: 2; word-spacing: 0px; -webkit-text-stroke-width: 0px; white-space: normal; background-color: rgb(251, 251, 251); text-decoration-thickness: initial; text-decoration-style: initial; text-decoration-color: initial;&quot;&gt;Successful transactions:&amp;nbsp; &amp;nbsp; &amp;nbsp; &amp;nbsp;32379&lt;/div&gt;&lt;div style=&quot;forced-color-adjust: none; color: rgb(0, 0, 0); font-family: Helvetica; font-size: 12px; font-style: normal; font-variant-ligatures: normal; font-variant-caps: normal; font-weight: 700; letter-spacing: normal; orphans: 2; text-align: left; text-indent: 0px; text-transform: none; widows: 2; word-spacing: 0px; -webkit-text-stroke-width: 0px; white-space: normal; background-color: rgb(251, 251, 251); text-decoration-thickness: initial; text-decoration-style: initial; text-decoration-color: initial;&quot;&gt;Failed transactions:&amp;nbsp; &amp;nbsp; &amp;nbsp; &amp;nbsp; &amp;nbsp; &amp;nbsp; &amp;nbsp; &amp;nbsp;0&lt;/div&gt;&lt;div style=&quot;forced-color-adjust: none; color: rgb(0, 0, 0); font-family: Helvetica; font-size: 12px; font-style: normal; font-variant-ligatures: normal; font-variant-caps: normal; font-weight: 700; letter-spacing: normal; orphans: 2; text-align: left; text-indent: 0px; text-transform: none; widows: 2; word-spacing: 0px; -webkit-text-stroke-width: 0px; white-space: normal; background-color: rgb(251, 251, 251); text-decoration-thickness: initial; text-decoration-style: initial; text-decoration-color: initial;&quot;&gt;Longest transaction:&amp;nbsp; &amp;nbsp; &amp;nbsp; &amp;nbsp; &amp;nbsp; &amp;nbsp; 0.21&lt;/div&gt;&lt;div style=&quot;forced-color-adjust: none; color: rgb(0, 0, 0); font-family: Helvetica; font-size: 12px; font-style: normal; font-variant-ligatures: normal; font-variant-caps: normal; font-weight: 700; letter-spacing: normal; orphans: 2; text-align: left; text-indent: 0px; text-transform: none; widows: 2; word-spacing: 0px; -webkit-text-stroke-width: 0px; white-space: normal; background-color: rgb(251, 251, 251); text-decoration-thickness: initial; text-decoration-style: initial; text-decoration-color: initial;&quot;&gt;Shortest transaction:&amp;nbsp; &amp;nbsp; &amp;nbsp; &amp;nbsp; &amp;nbsp; &amp;nbsp;0.00&lt;/div&gt;&#xa;&#xa;" id="Qa_dFpmSa4PXBOcellvm-1">
          <mxCell style="text;html=1;align=left;verticalAlign=top;rounded=0;whiteSpace=wrap;" vertex="1" parent="ESwAO3JPG-umCFg9xx-f-12">
            <mxGeometry x="10" y="30" width="700" height="440" as="geometry" />
          </mxCell>
        </UserObject>
      </root>
    </mxGraphModel>
  </diagram>
  <diagram id="89NZF61l9Vp5MYzPqYVU" name="Task2">
    <mxGraphModel dx="2100" dy="1338" grid="1" gridSize="10" guides="1" tooltips="1" connect="1" arrows="1" fold="1" page="1" pageScale="1" pageWidth="827" pageHeight="1169" math="0" shadow="0">
      <root>
        <mxCell id="0" />
        <mxCell id="1" parent="0" />
        <mxCell id="wBw0BOdwbusQiaTmaxbD-1" value="shard1:27018" style="shape=cylinder3;whiteSpace=wrap;html=1;boundedLbl=1;backgroundOutline=1;size=15;fillColor=#fff2cc;strokeColor=#d6b656;" vertex="1" parent="1">
          <mxGeometry x="160" y="260" width="120" height="80" as="geometry" />
        </mxCell>
        <mxCell id="wBw0BOdwbusQiaTmaxbD-2" value="pymongo-api" style="rounded=1;whiteSpace=wrap;html=1;fillColor=#dae8fc;strokeColor=#6c8ebf;" vertex="1" parent="1">
          <mxGeometry x="40" y="120" width="120" height="80" as="geometry" />
        </mxCell>
        <mxCell id="wBw0BOdwbusQiaTmaxbD-3" style="edgeStyle=orthogonalEdgeStyle;rounded=1;orthogonalLoop=1;jettySize=auto;html=1;entryX=0;entryY=0.5;entryDx=0;entryDy=0;entryPerimeter=0;curved=0;strokeWidth=2;startArrow=classic;startFill=1;" edge="1" parent="1" source="wBw0BOdwbusQiaTmaxbD-2" target="wBw0BOdwbusQiaTmaxbD-6">
          <mxGeometry relative="1" as="geometry" />
        </mxCell>
        <mxCell id="wBw0BOdwbusQiaTmaxbD-4" value="shard2:27019" style="shape=cylinder3;whiteSpace=wrap;html=1;boundedLbl=1;backgroundOutline=1;size=15;fillColor=#fff2cc;strokeColor=#d6b656;" vertex="1" parent="1">
          <mxGeometry x="354" y="260" width="120" height="80" as="geometry" />
        </mxCell>
        <mxCell id="wBw0BOdwbusQiaTmaxbD-6" value="mongos_router:27017" style="shape=cylinder3;whiteSpace=wrap;html=1;boundedLbl=1;backgroundOutline=1;size=15;fillColor=#d5e8d4;strokeColor=#82b366;" vertex="1" parent="1">
          <mxGeometry x="240" y="120" width="160" height="80" as="geometry" />
        </mxCell>
        <mxCell id="wBw0BOdwbusQiaTmaxbD-7" style="edgeStyle=orthogonalEdgeStyle;rounded=1;orthogonalLoop=1;jettySize=auto;html=1;exitX=0.5;exitY=1;exitDx=0;exitDy=0;exitPerimeter=0;entryX=0.5;entryY=0;entryDx=0;entryDy=0;entryPerimeter=0;curved=0;strokeWidth=2;startArrow=classic;startFill=1;" edge="1" parent="1" source="wBw0BOdwbusQiaTmaxbD-6" target="wBw0BOdwbusQiaTmaxbD-1">
          <mxGeometry relative="1" as="geometry" />
        </mxCell>
        <mxCell id="wBw0BOdwbusQiaTmaxbD-8" style="edgeStyle=orthogonalEdgeStyle;rounded=1;orthogonalLoop=1;jettySize=auto;html=1;exitX=0.5;exitY=1;exitDx=0;exitDy=0;exitPerimeter=0;entryX=0.5;entryY=0;entryDx=0;entryDy=0;entryPerimeter=0;curved=0;strokeWidth=2;startArrow=classic;startFill=1;" edge="1" parent="1" source="wBw0BOdwbusQiaTmaxbD-6" target="wBw0BOdwbusQiaTmaxbD-4">
          <mxGeometry relative="1" as="geometry" />
        </mxCell>
        <mxCell id="wBw0BOdwbusQiaTmaxbD-9" value="configSrv:27020" style="shape=cylinder3;whiteSpace=wrap;html=1;boundedLbl=1;backgroundOutline=1;size=15;fillColor=#f8cecc;strokeColor=#b85450;" vertex="1" parent="1">
          <mxGeometry x="474" y="120" width="120" height="80" as="geometry" />
        </mxCell>
        <mxCell id="wBw0BOdwbusQiaTmaxbD-10" style="edgeStyle=orthogonalEdgeStyle;rounded=0;orthogonalLoop=1;jettySize=auto;html=1;exitX=1;exitY=0.5;exitDx=0;exitDy=0;exitPerimeter=0;entryX=0;entryY=0.5;entryDx=0;entryDy=0;entryPerimeter=0;strokeWidth=2;strokeColor=#00CC66;" edge="1" parent="1" source="wBw0BOdwbusQiaTmaxbD-6" target="wBw0BOdwbusQiaTmaxbD-9">
          <mxGeometry relative="1" as="geometry" />
        </mxCell>
        <mxCell id="wBw0BOdwbusQiaTmaxbD-12" value="&lt;b&gt;&lt;font style=&quot;font-size: 24px;&quot;&gt;Задание 2&lt;/font&gt;&lt;/b&gt;" style="text;html=1;align=center;verticalAlign=middle;resizable=0;points=[];autosize=1;strokeColor=none;fillColor=none;" vertex="1" parent="1">
          <mxGeometry x="344" y="40" width="140" height="40" as="geometry" />
        </mxCell>
        <mxCell id="wBw0BOdwbusQiaTmaxbD-13" value="" style="endArrow=classic;html=1;rounded=1;curved=0;strokeWidth=2;" edge="1" parent="1">
          <mxGeometry width="50" height="50" relative="1" as="geometry">
            <mxPoint x="40" y="560" as="sourcePoint" />
            <mxPoint x="280" y="560" as="targetPoint" />
          </mxGeometry>
        </mxCell>
        <mxCell id="wBw0BOdwbusQiaTmaxbD-14" value="Данные" style="edgeLabel;html=1;align=center;verticalAlign=middle;resizable=0;points=[];" vertex="1" connectable="0" parent="wBw0BOdwbusQiaTmaxbD-13">
          <mxGeometry x="0.0233" y="2" relative="1" as="geometry">
            <mxPoint y="-8" as="offset" />
          </mxGeometry>
        </mxCell>
        <mxCell id="wBw0BOdwbusQiaTmaxbD-15" value="" style="endArrow=classic;html=1;rounded=1;curved=0;strokeWidth=2;strokeColor=#00CC66;" edge="1" parent="1">
          <mxGeometry width="50" height="50" relative="1" as="geometry">
            <mxPoint x="520" y="560" as="sourcePoint" />
            <mxPoint x="760" y="560" as="targetPoint" />
          </mxGeometry>
        </mxCell>
        <mxCell id="wBw0BOdwbusQiaTmaxbD-16" value="Конфигурация кластера" style="edgeLabel;html=1;align=center;verticalAlign=middle;resizable=0;points=[];" vertex="1" connectable="0" parent="wBw0BOdwbusQiaTmaxbD-15">
          <mxGeometry x="0.0233" y="2" relative="1" as="geometry">
            <mxPoint y="-8" as="offset" />
          </mxGeometry>
        </mxCell>
        <mxCell id="eE-l6AxGp0ATBr2sYzmz-2" value="Результаты нагрузочного тестирования" style="swimlane;whiteSpace=wrap;html=1;" vertex="1" parent="1">
          <mxGeometry x="40" y="610" width="720" height="530" as="geometry">
            <mxRectangle x="40" y="590" width="260" height="30" as="alternateBounds" />
          </mxGeometry>
        </mxCell>
        <mxCell id="eE-l6AxGp0ATBr2sYzmz-3" value="&lt;pre style=&quot;&quot;&gt;&lt;b&gt;This collection has&amp;nbsp; 2000&amp;nbsp; documents in total&lt;br&gt;This collection has&amp;nbsp; 1016&amp;nbsp; documents on&amp;nbsp; shard1&lt;br&gt;This collection has&amp;nbsp; 984&amp;nbsp; documents on&amp;nbsp; shard2&lt;br&gt;siege -b -c 5 -t 60s --rc=/dev/null http://127.0.0.1:8080/&lt;br&gt;Transactions:&amp;nbsp; &amp;nbsp; &amp;nbsp; &amp;nbsp; &amp;nbsp; &amp;nbsp; &amp;nbsp; &amp;nbsp; &amp;nbsp; 12079 hits&lt;br&gt;Response time:&amp;nbsp; &amp;nbsp; &amp;nbsp; &amp;nbsp; &amp;nbsp; &amp;nbsp; &amp;nbsp; &amp;nbsp; &amp;nbsp; 0.02 secs&lt;br&gt;Transaction rate:&amp;nbsp; &amp;nbsp; &amp;nbsp; &amp;nbsp; &amp;nbsp; &amp;nbsp; &amp;nbsp;209.52 trans/sec&lt;br&gt;Throughput:&amp;nbsp; &amp;nbsp; &amp;nbsp; &amp;nbsp; &amp;nbsp; &amp;nbsp; &amp;nbsp; &amp;nbsp; &amp;nbsp; &amp;nbsp; &amp;nbsp;0.09 MB/sec&lt;br&gt;Successful transactions:&amp;nbsp; &amp;nbsp; &amp;nbsp; &amp;nbsp;12079&lt;br&gt;Failed transactions:&amp;nbsp; &amp;nbsp; &amp;nbsp; &amp;nbsp; &amp;nbsp; &amp;nbsp; &amp;nbsp; &amp;nbsp;0&lt;br&gt;Longest transaction:&amp;nbsp; &amp;nbsp; &amp;nbsp; &amp;nbsp; &amp;nbsp; &amp;nbsp; 0.10&lt;br&gt;Shortest transaction:&amp;nbsp; &amp;nbsp; &amp;nbsp; &amp;nbsp; &amp;nbsp; &amp;nbsp;0.01&lt;br&gt;siege -b -c 5 -t 60s --rc=/dev/null http://127.0.0.1:8080/helloDoc/users&lt;br&gt;Transactions:&amp;nbsp; &amp;nbsp; &amp;nbsp; &amp;nbsp; &amp;nbsp; &amp;nbsp; &amp;nbsp; &amp;nbsp; &amp;nbsp; &amp;nbsp; &amp;nbsp;56 hits&lt;br&gt;Response time:&amp;nbsp; &amp;nbsp; &amp;nbsp; &amp;nbsp; &amp;nbsp; &amp;nbsp; &amp;nbsp; &amp;nbsp; &amp;nbsp; 5.16 secs&lt;br&gt;Transaction rate:&amp;nbsp; &amp;nbsp; &amp;nbsp; &amp;nbsp; &amp;nbsp; &amp;nbsp; &amp;nbsp; &amp;nbsp;0.95 trans/sec&lt;br&gt;Throughput:&amp;nbsp; &amp;nbsp; &amp;nbsp; &amp;nbsp; &amp;nbsp; &amp;nbsp; &amp;nbsp; &amp;nbsp; &amp;nbsp; &amp;nbsp; &amp;nbsp;0.05 MB/sec&lt;br&gt;Successful transactions:&amp;nbsp; &amp;nbsp; &amp;nbsp; &amp;nbsp; &amp;nbsp; 56&lt;br&gt;Failed transactions:&amp;nbsp; &amp;nbsp; &amp;nbsp; &amp;nbsp; &amp;nbsp; &amp;nbsp; &amp;nbsp; &amp;nbsp;0&lt;br&gt;Longest transaction:&amp;nbsp; &amp;nbsp; &amp;nbsp; &amp;nbsp; &amp;nbsp; &amp;nbsp; 8.08&lt;br&gt;Shortest transaction:&amp;nbsp; &amp;nbsp; &amp;nbsp; &amp;nbsp; &amp;nbsp; &amp;nbsp;4.04&lt;br&gt;siege -b -c 5 -t 60s --rc=/dev/null --file=/home/boris/repos/architecture-sprint-2/./urls.lst&lt;br&gt;Transactions:&amp;nbsp; &amp;nbsp; &amp;nbsp; &amp;nbsp; &amp;nbsp; &amp;nbsp; &amp;nbsp; &amp;nbsp; &amp;nbsp; 25027 hits&lt;br&gt;Response time:&amp;nbsp; &amp;nbsp; &amp;nbsp; &amp;nbsp; &amp;nbsp; &amp;nbsp; &amp;nbsp; &amp;nbsp; &amp;nbsp; 0.01 secs&lt;br&gt;Transaction rate:&amp;nbsp; &amp;nbsp; &amp;nbsp; &amp;nbsp; &amp;nbsp; &amp;nbsp; &amp;nbsp;428.40 trans/sec&lt;br&gt;Throughput:&amp;nbsp; &amp;nbsp; &amp;nbsp; &amp;nbsp; &amp;nbsp; &amp;nbsp; &amp;nbsp; &amp;nbsp; &amp;nbsp; &amp;nbsp; &amp;nbsp;0.02 MB/sec&lt;br&gt;Successful transactions:&amp;nbsp; &amp;nbsp; &amp;nbsp; &amp;nbsp;25027&lt;br&gt;Failed transactions:&amp;nbsp; &amp;nbsp; &amp;nbsp; &amp;nbsp; &amp;nbsp; &amp;nbsp; &amp;nbsp; &amp;nbsp;0&lt;br&gt;Longest transaction:&amp;nbsp; &amp;nbsp; &amp;nbsp; &amp;nbsp; &amp;nbsp; &amp;nbsp; 2.52&lt;br&gt;Shortest transaction:&amp;nbsp; &amp;nbsp; &amp;nbsp; &amp;nbsp; &amp;nbsp; &amp;nbsp;0.00&lt;/b&gt;&lt;/pre&gt;&lt;div&gt;&lt;b&gt;&lt;br style=&quot;&quot;&gt;&lt;/b&gt;&lt;br style=&quot;font-weight: 700;&quot;&gt;&lt;/div&gt;" style="text;html=1;align=left;verticalAlign=top;whiteSpace=wrap;rounded=0;" vertex="1" parent="eE-l6AxGp0ATBr2sYzmz-2">
          <mxGeometry x="10" y="30" width="700" height="460" as="geometry" />
        </mxCell>
      </root>
    </mxGraphModel>
  </diagram>
  <diagram id="s39HdZLusExV1d0sh22u" name="Task3">
    <mxGraphModel dx="1050" dy="669" grid="1" gridSize="10" guides="1" tooltips="1" connect="1" arrows="1" fold="1" page="1" pageScale="1" pageWidth="827" pageHeight="1169" math="0" shadow="0">
      <root>
        <mxCell id="0" />
        <mxCell id="1" parent="0" />
        <mxCell id="IYXDOPfuiuxa2JOew0cE-10" value="&lt;b&gt;&lt;font style=&quot;font-size: 24px;&quot;&gt;Задание 3&lt;/font&gt;&lt;/b&gt;" style="text;html=1;align=center;verticalAlign=middle;resizable=0;points=[];autosize=1;strokeColor=none;fillColor=none;" vertex="1" parent="1">
          <mxGeometry x="344" y="40" width="140" height="40" as="geometry" />
        </mxCell>
        <mxCell id="IYXDOPfuiuxa2JOew0cE-37" value="" style="group" vertex="1" connectable="0" parent="1">
          <mxGeometry x="40" y="560" width="720" height="580" as="geometry" />
        </mxCell>
        <mxCell id="IYXDOPfuiuxa2JOew0cE-11" value="" style="endArrow=classic;html=1;rounded=1;curved=0;strokeWidth=2;" edge="1" parent="IYXDOPfuiuxa2JOew0cE-37">
          <mxGeometry width="50" height="50" relative="1" as="geometry">
            <mxPoint as="sourcePoint" />
            <mxPoint x="200" as="targetPoint" />
          </mxGeometry>
        </mxCell>
        <mxCell id="IYXDOPfuiuxa2JOew0cE-12" value="Данные" style="edgeLabel;html=1;align=center;verticalAlign=middle;resizable=0;points=[];" vertex="1" connectable="0" parent="IYXDOPfuiuxa2JOew0cE-11">
          <mxGeometry x="0.0233" y="2" relative="1" as="geometry">
            <mxPoint y="-8" as="offset" />
          </mxGeometry>
        </mxCell>
        <mxCell id="IYXDOPfuiuxa2JOew0cE-13" value="" style="endArrow=classic;html=1;rounded=1;curved=0;strokeWidth=2;strokeColor=#00CC66;" edge="1" parent="IYXDOPfuiuxa2JOew0cE-37">
          <mxGeometry width="50" height="50" relative="1" as="geometry">
            <mxPoint x="480" as="sourcePoint" />
            <mxPoint x="680" as="targetPoint" />
          </mxGeometry>
        </mxCell>
        <mxCell id="IYXDOPfuiuxa2JOew0cE-14" value="Конфигурация кластера" style="edgeLabel;html=1;align=center;verticalAlign=middle;resizable=0;points=[];" vertex="1" connectable="0" parent="IYXDOPfuiuxa2JOew0cE-13">
          <mxGeometry x="0.0233" y="2" relative="1" as="geometry">
            <mxPoint y="-8" as="offset" />
          </mxGeometry>
        </mxCell>
        <mxCell id="IYXDOPfuiuxa2JOew0cE-15" value="Результаты нагрузочного тестирования" style="swimlane;whiteSpace=wrap;html=1;" vertex="1" parent="IYXDOPfuiuxa2JOew0cE-37">
          <mxGeometry y="50" width="720" height="530" as="geometry">
            <mxRectangle x="40" y="590" width="260" height="30" as="alternateBounds" />
          </mxGeometry>
        </mxCell>
        <mxCell id="IYXDOPfuiuxa2JOew0cE-16" value="&lt;pre style=&quot;&quot;&gt;&lt;b&gt;This collection has  2000  documents in total&lt;br/&gt;This collection has  1016  documents on  shard1&lt;br/&gt;This collection has  984  documents on  shard2&lt;br/&gt;&lt;br/&gt;siege -b -c 5 -t 60s --rc=/dev/null http://127.0.0.1:8080/&lt;br/&gt;Transactions:                  11539 hits&lt;br/&gt;Response time:                  0.03 secs&lt;br/&gt;Transaction rate:             192.35 trans/sec&lt;br/&gt;Throughput:                     0.09 MB/sec&lt;br/&gt;Successful transactions:       11539&lt;br/&gt;Failed transactions:               0&lt;br/&gt;Longest transaction:            0.11&lt;br/&gt;Shortest transaction:           0.00&lt;br/&gt;siege -b -c 5 -t 60s --rc=/dev/null http://127.0.0.1:8080/helloDoc/users&lt;br/&gt;Transactions:                     56 hits&lt;br/&gt;Response time:                  5.19 secs&lt;br/&gt;Transaction rate:               0.93 trans/sec&lt;br/&gt;Throughput:                     0.05 MB/sec&lt;br/&gt;Successful transactions:          56&lt;br/&gt;Failed transactions:               0&lt;br/&gt;Longest transaction:            7.09&lt;br/&gt;Shortest transaction:           3.05&lt;br/&gt;siege -b -c 5 -t 60s --rc=/dev/null --file=/home/boris/repos/architecture-sprint-2/./urls.lst&lt;br/&gt;Transactions:                  23121 hits&lt;br/&gt;Response time:                  0.01 secs&lt;br/&gt;Transaction rate:             385.41 trans/sec&lt;br/&gt;Throughput:                     0.02 MB/sec&lt;br/&gt;Successful transactions:       23121&lt;br/&gt;Failed transactions:               0&lt;br/&gt;Longest transaction:            2.02&lt;br/&gt;Shortest transaction:           0.00&lt;/b&gt;&lt;br&gt;&lt;/pre&gt;" style="text;html=1;align=left;verticalAlign=top;whiteSpace=wrap;rounded=0;" vertex="1" parent="IYXDOPfuiuxa2JOew0cE-15">
          <mxGeometry x="10" y="30" width="700" height="460" as="geometry" />
        </mxCell>
        <mxCell id="IYXDOPfuiuxa2JOew0cE-26" value="" style="endArrow=classic;html=1;rounded=1;curved=0;strokeWidth=2;strokeColor=#FF9999;" edge="1" parent="IYXDOPfuiuxa2JOew0cE-37">
          <mxGeometry width="50" height="50" relative="1" as="geometry">
            <mxPoint x="244" as="sourcePoint" />
            <mxPoint x="444" as="targetPoint" />
          </mxGeometry>
        </mxCell>
        <mxCell id="IYXDOPfuiuxa2JOew0cE-27" value="Heartbeat" style="edgeLabel;html=1;align=center;verticalAlign=middle;resizable=0;points=[];" vertex="1" connectable="0" parent="IYXDOPfuiuxa2JOew0cE-26">
          <mxGeometry x="0.0233" y="2" relative="1" as="geometry">
            <mxPoint y="-8" as="offset" />
          </mxGeometry>
        </mxCell>
        <mxCell id="IYXDOPfuiuxa2JOew0cE-40" value="" style="group" vertex="1" connectable="0" parent="1">
          <mxGeometry x="40" y="120" width="720" height="360" as="geometry" />
        </mxCell>
        <mxCell id="IYXDOPfuiuxa2JOew0cE-2" value="pymongo-api" style="rounded=1;whiteSpace=wrap;html=1;fillColor=#dae8fc;strokeColor=#6c8ebf;" vertex="1" parent="IYXDOPfuiuxa2JOew0cE-40">
          <mxGeometry width="120" height="80" as="geometry" />
        </mxCell>
        <mxCell id="IYXDOPfuiuxa2JOew0cE-3" style="edgeStyle=orthogonalEdgeStyle;rounded=1;orthogonalLoop=1;jettySize=auto;html=1;entryX=0;entryY=0.5;entryDx=0;entryDy=0;entryPerimeter=0;curved=0;strokeWidth=2;startArrow=classic;startFill=1;" edge="1" parent="IYXDOPfuiuxa2JOew0cE-40" source="IYXDOPfuiuxa2JOew0cE-2" target="IYXDOPfuiuxa2JOew0cE-5">
          <mxGeometry relative="1" as="geometry" />
        </mxCell>
        <mxCell id="IYXDOPfuiuxa2JOew0cE-5" value="mongos_router:27017" style="shape=cylinder3;whiteSpace=wrap;html=1;boundedLbl=1;backgroundOutline=1;size=15;fillColor=#d5e8d4;strokeColor=#82b366;" vertex="1" parent="IYXDOPfuiuxa2JOew0cE-40">
          <mxGeometry x="280" width="160" height="80" as="geometry" />
        </mxCell>
        <mxCell id="IYXDOPfuiuxa2JOew0cE-6" style="edgeStyle=orthogonalEdgeStyle;rounded=1;orthogonalLoop=1;jettySize=auto;html=1;exitX=0.5;exitY=1;exitDx=0;exitDy=0;exitPerimeter=0;entryX=0.5;entryY=0;entryDx=0;entryDy=0;entryPerimeter=0;curved=0;strokeWidth=2;startArrow=classic;startFill=1;" edge="1" parent="IYXDOPfuiuxa2JOew0cE-40" source="IYXDOPfuiuxa2JOew0cE-5" target="IYXDOPfuiuxa2JOew0cE-1">
          <mxGeometry relative="1" as="geometry" />
        </mxCell>
        <mxCell id="IYXDOPfuiuxa2JOew0cE-7" style="edgeStyle=orthogonalEdgeStyle;rounded=1;orthogonalLoop=1;jettySize=auto;html=1;exitX=0.5;exitY=1;exitDx=0;exitDy=0;exitPerimeter=0;entryX=0.5;entryY=0;entryDx=0;entryDy=0;entryPerimeter=0;curved=0;strokeWidth=2;startArrow=classic;startFill=1;" edge="1" parent="IYXDOPfuiuxa2JOew0cE-40" source="IYXDOPfuiuxa2JOew0cE-5" target="IYXDOPfuiuxa2JOew0cE-4">
          <mxGeometry relative="1" as="geometry" />
        </mxCell>
        <mxCell id="IYXDOPfuiuxa2JOew0cE-8" value="configSrv:27020" style="shape=cylinder3;whiteSpace=wrap;html=1;boundedLbl=1;backgroundOutline=1;size=15;fillColor=#f8cecc;strokeColor=#b85450;" vertex="1" parent="IYXDOPfuiuxa2JOew0cE-40">
          <mxGeometry x="600" width="120" height="80" as="geometry" />
        </mxCell>
        <mxCell id="IYXDOPfuiuxa2JOew0cE-9" style="edgeStyle=orthogonalEdgeStyle;rounded=0;orthogonalLoop=1;jettySize=auto;html=1;exitX=1;exitY=0.5;exitDx=0;exitDy=0;exitPerimeter=0;entryX=0;entryY=0.5;entryDx=0;entryDy=0;entryPerimeter=0;strokeWidth=2;strokeColor=#00CC66;" edge="1" parent="IYXDOPfuiuxa2JOew0cE-40" source="IYXDOPfuiuxa2JOew0cE-5" target="IYXDOPfuiuxa2JOew0cE-8">
          <mxGeometry relative="1" as="geometry" />
        </mxCell>
        <mxCell id="IYXDOPfuiuxa2JOew0cE-38" value="" style="group" vertex="1" connectable="0" parent="IYXDOPfuiuxa2JOew0cE-40">
          <mxGeometry y="140" width="320" height="220" as="geometry" />
        </mxCell>
        <mxCell id="IYXDOPfuiuxa2JOew0cE-1" value="shard1:27018" style="shape=cylinder3;whiteSpace=wrap;html=1;boundedLbl=1;backgroundOutline=1;size=15;fillColor=#fff2cc;strokeColor=#d6b656;" vertex="1" parent="IYXDOPfuiuxa2JOew0cE-38">
          <mxGeometry x="100" width="120" height="80" as="geometry" />
        </mxCell>
        <mxCell id="IYXDOPfuiuxa2JOew0cE-17" value="shard1a:27028" style="shape=cylinder3;whiteSpace=wrap;html=1;boundedLbl=1;backgroundOutline=1;size=15;fillColor=#fff2cc;strokeColor=#d6b656;" vertex="1" parent="IYXDOPfuiuxa2JOew0cE-38">
          <mxGeometry y="140" width="120" height="80" as="geometry" />
        </mxCell>
        <mxCell id="IYXDOPfuiuxa2JOew0cE-18" value="shard1b:27038" style="shape=cylinder3;whiteSpace=wrap;html=1;boundedLbl=1;backgroundOutline=1;size=15;fillColor=#fff2cc;strokeColor=#d6b656;" vertex="1" parent="IYXDOPfuiuxa2JOew0cE-38">
          <mxGeometry x="200" y="140" width="120" height="80" as="geometry" />
        </mxCell>
        <mxCell id="IYXDOPfuiuxa2JOew0cE-20" style="edgeStyle=orthogonalEdgeStyle;rounded=1;orthogonalLoop=1;jettySize=auto;html=1;exitX=0;exitY=0;exitDx=0;exitDy=27.5;exitPerimeter=0;entryX=0.145;entryY=0;entryDx=0;entryDy=4.35;entryPerimeter=0;curved=0;strokeWidth=2;startArrow=classic;startFill=1;" edge="1" parent="IYXDOPfuiuxa2JOew0cE-38" source="IYXDOPfuiuxa2JOew0cE-1" target="IYXDOPfuiuxa2JOew0cE-17">
          <mxGeometry relative="1" as="geometry" />
        </mxCell>
        <mxCell id="IYXDOPfuiuxa2JOew0cE-21" style="edgeStyle=orthogonalEdgeStyle;rounded=1;orthogonalLoop=1;jettySize=auto;html=1;exitX=1;exitY=0;exitDx=0;exitDy=52.5;exitPerimeter=0;entryX=0;entryY=0;entryDx=0;entryDy=52.5;entryPerimeter=0;curved=0;strokeWidth=2;startArrow=classic;startFill=1;" edge="1" parent="IYXDOPfuiuxa2JOew0cE-38" source="IYXDOPfuiuxa2JOew0cE-17" target="IYXDOPfuiuxa2JOew0cE-18">
          <mxGeometry relative="1" as="geometry" />
        </mxCell>
        <mxCell id="IYXDOPfuiuxa2JOew0cE-22" style="edgeStyle=orthogonalEdgeStyle;rounded=1;orthogonalLoop=1;jettySize=auto;html=1;exitX=0.855;exitY=0;exitDx=0;exitDy=4.35;exitPerimeter=0;entryX=1;entryY=0;entryDx=0;entryDy=27.5;entryPerimeter=0;curved=0;strokeWidth=2;startArrow=classic;startFill=1;" edge="1" parent="IYXDOPfuiuxa2JOew0cE-38" source="IYXDOPfuiuxa2JOew0cE-18" target="IYXDOPfuiuxa2JOew0cE-1">
          <mxGeometry relative="1" as="geometry" />
        </mxCell>
        <mxCell id="IYXDOPfuiuxa2JOew0cE-23" style="edgeStyle=orthogonalEdgeStyle;rounded=1;orthogonalLoop=1;jettySize=auto;html=1;exitX=0;exitY=0;exitDx=0;exitDy=52.5;exitPerimeter=0;entryX=0.5;entryY=0;entryDx=0;entryDy=0;entryPerimeter=0;curved=0;strokeWidth=2;startArrow=classic;startFill=1;strokeColor=#FF9999;" edge="1" parent="IYXDOPfuiuxa2JOew0cE-38" source="IYXDOPfuiuxa2JOew0cE-1" target="IYXDOPfuiuxa2JOew0cE-17">
          <mxGeometry relative="1" as="geometry" />
        </mxCell>
        <mxCell id="IYXDOPfuiuxa2JOew0cE-24" style="edgeStyle=orthogonalEdgeStyle;rounded=1;orthogonalLoop=1;jettySize=auto;html=1;exitX=1;exitY=0;exitDx=0;exitDy=27.5;exitPerimeter=0;entryX=0;entryY=0;entryDx=0;entryDy=27.5;entryPerimeter=0;curved=0;strokeWidth=2;startArrow=classic;startFill=1;strokeColor=#FF9999;" edge="1" parent="IYXDOPfuiuxa2JOew0cE-38" source="IYXDOPfuiuxa2JOew0cE-17" target="IYXDOPfuiuxa2JOew0cE-18">
          <mxGeometry relative="1" as="geometry" />
        </mxCell>
        <mxCell id="IYXDOPfuiuxa2JOew0cE-25" style="edgeStyle=orthogonalEdgeStyle;rounded=1;orthogonalLoop=1;jettySize=auto;html=1;exitX=0.5;exitY=0;exitDx=0;exitDy=0;exitPerimeter=0;entryX=1;entryY=0;entryDx=0;entryDy=52.5;entryPerimeter=0;curved=0;strokeWidth=2;startArrow=classic;startFill=1;strokeColor=#FF9999;" edge="1" parent="IYXDOPfuiuxa2JOew0cE-38" source="IYXDOPfuiuxa2JOew0cE-18" target="IYXDOPfuiuxa2JOew0cE-1">
          <mxGeometry relative="1" as="geometry" />
        </mxCell>
        <mxCell id="IYXDOPfuiuxa2JOew0cE-39" value="" style="group" vertex="1" connectable="0" parent="IYXDOPfuiuxa2JOew0cE-40">
          <mxGeometry x="400" y="140" width="320" height="220" as="geometry" />
        </mxCell>
        <mxCell id="IYXDOPfuiuxa2JOew0cE-4" value="shard2:27019" style="shape=cylinder3;whiteSpace=wrap;html=1;boundedLbl=1;backgroundOutline=1;size=15;fillColor=#fff2cc;strokeColor=#d6b656;" vertex="1" parent="IYXDOPfuiuxa2JOew0cE-39">
          <mxGeometry x="100" width="120" height="80" as="geometry" />
        </mxCell>
        <mxCell id="IYXDOPfuiuxa2JOew0cE-29" value="shard2a:27029" style="shape=cylinder3;whiteSpace=wrap;html=1;boundedLbl=1;backgroundOutline=1;size=15;fillColor=#fff2cc;strokeColor=#d6b656;" vertex="1" parent="IYXDOPfuiuxa2JOew0cE-39">
          <mxGeometry y="140" width="120" height="80" as="geometry" />
        </mxCell>
        <mxCell id="IYXDOPfuiuxa2JOew0cE-30" value="shard2b:27039" style="shape=cylinder3;whiteSpace=wrap;html=1;boundedLbl=1;backgroundOutline=1;size=15;fillColor=#fff2cc;strokeColor=#d6b656;" vertex="1" parent="IYXDOPfuiuxa2JOew0cE-39">
          <mxGeometry x="200" y="140" width="120" height="80" as="geometry" />
        </mxCell>
        <mxCell id="IYXDOPfuiuxa2JOew0cE-31" style="edgeStyle=orthogonalEdgeStyle;rounded=1;orthogonalLoop=1;jettySize=auto;html=1;exitX=0;exitY=0;exitDx=0;exitDy=27.5;exitPerimeter=0;entryX=0.145;entryY=0;entryDx=0;entryDy=4.35;entryPerimeter=0;curved=0;strokeWidth=2;startArrow=classic;startFill=1;" edge="1" parent="IYXDOPfuiuxa2JOew0cE-39" source="IYXDOPfuiuxa2JOew0cE-4" target="IYXDOPfuiuxa2JOew0cE-29">
          <mxGeometry relative="1" as="geometry" />
        </mxCell>
        <mxCell id="IYXDOPfuiuxa2JOew0cE-32" style="edgeStyle=orthogonalEdgeStyle;rounded=1;orthogonalLoop=1;jettySize=auto;html=1;exitX=1;exitY=0;exitDx=0;exitDy=52.5;exitPerimeter=0;entryX=0;entryY=0;entryDx=0;entryDy=52.5;entryPerimeter=0;curved=0;strokeWidth=2;startArrow=classic;startFill=1;" edge="1" parent="IYXDOPfuiuxa2JOew0cE-39" source="IYXDOPfuiuxa2JOew0cE-29" target="IYXDOPfuiuxa2JOew0cE-30">
          <mxGeometry relative="1" as="geometry" />
        </mxCell>
        <mxCell id="IYXDOPfuiuxa2JOew0cE-33" style="edgeStyle=orthogonalEdgeStyle;rounded=1;orthogonalLoop=1;jettySize=auto;html=1;exitX=0.855;exitY=0;exitDx=0;exitDy=4.35;exitPerimeter=0;entryX=1;entryY=0;entryDx=0;entryDy=27.5;entryPerimeter=0;curved=0;strokeWidth=2;startArrow=classic;startFill=1;" edge="1" parent="IYXDOPfuiuxa2JOew0cE-39" source="IYXDOPfuiuxa2JOew0cE-30" target="IYXDOPfuiuxa2JOew0cE-4">
          <mxGeometry relative="1" as="geometry" />
        </mxCell>
        <mxCell id="IYXDOPfuiuxa2JOew0cE-34" style="edgeStyle=orthogonalEdgeStyle;rounded=1;orthogonalLoop=1;jettySize=auto;html=1;exitX=0;exitY=0;exitDx=0;exitDy=52.5;exitPerimeter=0;entryX=0.5;entryY=0;entryDx=0;entryDy=0;entryPerimeter=0;curved=0;strokeWidth=2;startArrow=classic;startFill=1;strokeColor=#FF9999;" edge="1" parent="IYXDOPfuiuxa2JOew0cE-39" source="IYXDOPfuiuxa2JOew0cE-4" target="IYXDOPfuiuxa2JOew0cE-29">
          <mxGeometry relative="1" as="geometry" />
        </mxCell>
        <mxCell id="IYXDOPfuiuxa2JOew0cE-35" style="edgeStyle=orthogonalEdgeStyle;rounded=1;orthogonalLoop=1;jettySize=auto;html=1;exitX=1;exitY=0;exitDx=0;exitDy=27.5;exitPerimeter=0;entryX=0;entryY=0;entryDx=0;entryDy=27.5;entryPerimeter=0;curved=0;strokeWidth=2;startArrow=classic;startFill=1;strokeColor=#FF9999;" edge="1" parent="IYXDOPfuiuxa2JOew0cE-39" source="IYXDOPfuiuxa2JOew0cE-29" target="IYXDOPfuiuxa2JOew0cE-30">
          <mxGeometry relative="1" as="geometry" />
        </mxCell>
        <mxCell id="IYXDOPfuiuxa2JOew0cE-36" style="edgeStyle=orthogonalEdgeStyle;rounded=1;orthogonalLoop=1;jettySize=auto;html=1;exitX=0.5;exitY=0;exitDx=0;exitDy=0;exitPerimeter=0;entryX=1;entryY=0;entryDx=0;entryDy=52.5;entryPerimeter=0;curved=0;strokeWidth=2;startArrow=classic;startFill=1;strokeColor=#FF9999;" edge="1" parent="IYXDOPfuiuxa2JOew0cE-39" source="IYXDOPfuiuxa2JOew0cE-30" target="IYXDOPfuiuxa2JOew0cE-4">
          <mxGeometry relative="1" as="geometry" />
        </mxCell>
      </root>
    </mxGraphModel>
  </diagram>
  <diagram id="k7JpbegbJHnfTv_CE5fr" name="Task4">
    <mxGraphModel dx="1050" dy="669" grid="1" gridSize="10" guides="1" tooltips="1" connect="1" arrows="1" fold="1" page="1" pageScale="1" pageWidth="827" pageHeight="1169" math="0" shadow="0">
      <root>
        <mxCell id="0" />
        <mxCell id="1" parent="0" />
        <mxCell id="UDLYaM1cAH8V1fUTtjYQ-1" value="&lt;b&gt;&lt;font style=&quot;font-size: 24px;&quot;&gt;Задание 4&lt;/font&gt;&lt;/b&gt;" style="text;html=1;align=center;verticalAlign=middle;resizable=0;points=[];autosize=1;strokeColor=none;fillColor=none;" vertex="1" parent="1">
          <mxGeometry x="344" y="40" width="140" height="40" as="geometry" />
        </mxCell>
        <mxCell id="UDLYaM1cAH8V1fUTtjYQ-3" value="" style="endArrow=classic;html=1;rounded=1;curved=0;strokeWidth=2;" edge="1" parent="1">
          <mxGeometry width="50" height="50" relative="1" as="geometry">
            <mxPoint x="40" y="600" as="sourcePoint" />
            <mxPoint x="240" y="600" as="targetPoint" />
          </mxGeometry>
        </mxCell>
        <mxCell id="UDLYaM1cAH8V1fUTtjYQ-4" value="Данные" style="edgeLabel;html=1;align=center;verticalAlign=middle;resizable=0;points=[];" vertex="1" connectable="0" parent="UDLYaM1cAH8V1fUTtjYQ-3">
          <mxGeometry x="0.0233" y="2" relative="1" as="geometry">
            <mxPoint y="-8" as="offset" />
          </mxGeometry>
        </mxCell>
        <mxCell id="UDLYaM1cAH8V1fUTtjYQ-5" value="" style="endArrow=classic;html=1;rounded=1;curved=0;strokeWidth=2;strokeColor=#00CC66;" edge="1" parent="1">
          <mxGeometry width="50" height="50" relative="1" as="geometry">
            <mxPoint x="520" y="600" as="sourcePoint" />
            <mxPoint x="720" y="600" as="targetPoint" />
          </mxGeometry>
        </mxCell>
        <mxCell id="UDLYaM1cAH8V1fUTtjYQ-6" value="Конфигурация кластера" style="edgeLabel;html=1;align=center;verticalAlign=middle;resizable=0;points=[];" vertex="1" connectable="0" parent="UDLYaM1cAH8V1fUTtjYQ-5">
          <mxGeometry x="0.0233" y="2" relative="1" as="geometry">
            <mxPoint y="-8" as="offset" />
          </mxGeometry>
        </mxCell>
        <mxCell id="UDLYaM1cAH8V1fUTtjYQ-7" value="Результаты нагрузочного тестирования" style="swimlane;whiteSpace=wrap;html=1;" vertex="1" parent="1">
          <mxGeometry x="40" y="647.41" width="720" height="502.59" as="geometry">
            <mxRectangle x="40" y="590" width="260" height="30" as="alternateBounds" />
          </mxGeometry>
        </mxCell>
        <mxCell id="UDLYaM1cAH8V1fUTtjYQ-8" value="&lt;pre style=&quot;&quot;&gt;&lt;b&gt;This collection has  2000  documents in total&lt;br/&gt;This collection has  1016  documents on  shard1&lt;br/&gt;This collection has  984  documents on  shard2&lt;br/&gt;&lt;br/&gt;siege -b -c 5 -t 60s --rc=/dev/null http://127.0.0.1:8080/&lt;br/&gt;Transactions:                  11499 hits&lt;br/&gt;Response time:                  0.03 secs&lt;br/&gt;Transaction rate:             193.72 trans/sec&lt;br/&gt;Throughput:                     0.09 MB/sec&lt;br/&gt;Successful transactions:       11499&lt;br/&gt;Failed transactions:               0&lt;br/&gt;Longest transaction:            0.09&lt;br/&gt;Shortest transaction:           0.01&lt;br/&gt;siege -b -c 5 -t 60s --rc=/dev/null http://127.0.0.1:8080/helloDoc/users&lt;br/&gt;Transactions:                   8248 hits&lt;br/&gt;Response time:                  0.04 secs&lt;br/&gt;Transaction rate:             137.51 trans/sec&lt;br/&gt;Throughput:                     7.82 MB/sec&lt;br/&gt;Successful transactions:        8248&lt;br/&gt;Failed transactions:               0&lt;br/&gt;Longest transaction:            5.15&lt;br/&gt;Shortest transaction:           0.02&lt;br/&gt;siege -b -c 5 -t 60s --rc=/dev/null --file=/home/boris/repos/architecture-sprint-2/./urls.lst&lt;br/&gt;Transactions:                  25049 hits&lt;br/&gt;Response time:                  0.01 secs&lt;br/&gt;Transaction rate:             417.62 trans/sec&lt;br/&gt;Throughput:                     0.02 MB/sec&lt;br/&gt;Successful transactions:       25049&lt;br/&gt;Failed transactions:               0&lt;br/&gt;Longest transaction:            0.05&lt;br/&gt;Shortest transaction:           0.00&lt;/b&gt;&lt;br&gt;&lt;/pre&gt;" style="text;html=1;align=left;verticalAlign=top;whiteSpace=wrap;rounded=0;" vertex="1" parent="UDLYaM1cAH8V1fUTtjYQ-7">
          <mxGeometry x="10" y="28.448275862068964" width="700" height="436.2068965517241" as="geometry" />
        </mxCell>
        <mxCell id="UDLYaM1cAH8V1fUTtjYQ-9" value="" style="endArrow=classic;html=1;rounded=1;curved=0;strokeWidth=2;strokeColor=#FF9999;" edge="1" parent="1">
          <mxGeometry width="50" height="50" relative="1" as="geometry">
            <mxPoint x="284" y="600" as="sourcePoint" />
            <mxPoint x="484" y="600" as="targetPoint" />
          </mxGeometry>
        </mxCell>
        <mxCell id="UDLYaM1cAH8V1fUTtjYQ-10" value="Heartbeat" style="edgeLabel;html=1;align=center;verticalAlign=middle;resizable=0;points=[];" vertex="1" connectable="0" parent="UDLYaM1cAH8V1fUTtjYQ-9">
          <mxGeometry x="0.0233" y="2" relative="1" as="geometry">
            <mxPoint y="-8" as="offset" />
          </mxGeometry>
        </mxCell>
        <mxCell id="UDLYaM1cAH8V1fUTtjYQ-41" style="edgeStyle=orthogonalEdgeStyle;rounded=1;orthogonalLoop=1;jettySize=auto;html=1;exitX=0.5;exitY=1;exitDx=0;exitDy=0;entryX=0.5;entryY=0;entryDx=0;entryDy=0;curved=0;strokeWidth=2;startArrow=classic;startFill=1;" edge="1" parent="1" source="UDLYaM1cAH8V1fUTtjYQ-12" target="UDLYaM1cAH8V1fUTtjYQ-40">
          <mxGeometry relative="1" as="geometry" />
        </mxCell>
        <mxCell id="UDLYaM1cAH8V1fUTtjYQ-12" value="pymongo-api" style="rounded=1;whiteSpace=wrap;html=1;fillColor=#dae8fc;strokeColor=#6c8ebf;" vertex="1" parent="1">
          <mxGeometry x="40" y="80" width="120" height="80" as="geometry" />
        </mxCell>
        <mxCell id="UDLYaM1cAH8V1fUTtjYQ-13" style="edgeStyle=orthogonalEdgeStyle;rounded=1;orthogonalLoop=1;jettySize=auto;html=1;entryX=0;entryY=0.5;entryDx=0;entryDy=0;entryPerimeter=0;curved=0;strokeWidth=2;startArrow=classic;startFill=1;exitX=0.5;exitY=1;exitDx=0;exitDy=0;" edge="1" parent="1" source="UDLYaM1cAH8V1fUTtjYQ-12" target="UDLYaM1cAH8V1fUTtjYQ-14">
          <mxGeometry relative="1" as="geometry">
            <mxPoint x="400" y="160" as="sourcePoint" />
            <Array as="points">
              <mxPoint x="100" y="200" />
            </Array>
          </mxGeometry>
        </mxCell>
        <mxCell id="UDLYaM1cAH8V1fUTtjYQ-14" value="mongos_router:27017" style="shape=cylinder3;whiteSpace=wrap;html=1;boundedLbl=1;backgroundOutline=1;size=15;fillColor=#d5e8d4;strokeColor=#82b366;" vertex="1" parent="1">
          <mxGeometry x="320" y="160" width="160" height="80" as="geometry" />
        </mxCell>
        <mxCell id="UDLYaM1cAH8V1fUTtjYQ-15" style="edgeStyle=orthogonalEdgeStyle;rounded=1;orthogonalLoop=1;jettySize=auto;html=1;exitX=0.5;exitY=1;exitDx=0;exitDy=0;exitPerimeter=0;entryX=0.5;entryY=0;entryDx=0;entryDy=0;entryPerimeter=0;curved=0;strokeWidth=2;startArrow=classic;startFill=1;" edge="1" parent="1" source="UDLYaM1cAH8V1fUTtjYQ-14" target="UDLYaM1cAH8V1fUTtjYQ-20">
          <mxGeometry relative="1" as="geometry" />
        </mxCell>
        <mxCell id="UDLYaM1cAH8V1fUTtjYQ-16" style="edgeStyle=orthogonalEdgeStyle;rounded=1;orthogonalLoop=1;jettySize=auto;html=1;exitX=0.5;exitY=1;exitDx=0;exitDy=0;exitPerimeter=0;entryX=0.5;entryY=0;entryDx=0;entryDy=0;entryPerimeter=0;curved=0;strokeWidth=2;startArrow=classic;startFill=1;" edge="1" parent="1" source="UDLYaM1cAH8V1fUTtjYQ-14" target="UDLYaM1cAH8V1fUTtjYQ-30">
          <mxGeometry relative="1" as="geometry" />
        </mxCell>
        <mxCell id="UDLYaM1cAH8V1fUTtjYQ-17" value="configSrv:27020" style="shape=cylinder3;whiteSpace=wrap;html=1;boundedLbl=1;backgroundOutline=1;size=15;fillColor=#f8cecc;strokeColor=#b85450;" vertex="1" parent="1">
          <mxGeometry x="640" y="160" width="120" height="80" as="geometry" />
        </mxCell>
        <mxCell id="UDLYaM1cAH8V1fUTtjYQ-18" style="edgeStyle=orthogonalEdgeStyle;rounded=1;orthogonalLoop=1;jettySize=auto;html=1;exitX=1;exitY=0.5;exitDx=0;exitDy=0;exitPerimeter=0;entryX=0;entryY=0.5;entryDx=0;entryDy=0;entryPerimeter=0;strokeWidth=2;strokeColor=#00CC66;curved=0;" edge="1" parent="1" source="UDLYaM1cAH8V1fUTtjYQ-14" target="UDLYaM1cAH8V1fUTtjYQ-17">
          <mxGeometry relative="1" as="geometry" />
        </mxCell>
        <mxCell id="UDLYaM1cAH8V1fUTtjYQ-19" value="" style="group" vertex="1" connectable="0" parent="1">
          <mxGeometry x="40" y="340" width="320" height="220" as="geometry" />
        </mxCell>
        <mxCell id="UDLYaM1cAH8V1fUTtjYQ-20" value="shard1:27018" style="shape=cylinder3;whiteSpace=wrap;html=1;boundedLbl=1;backgroundOutline=1;size=15;fillColor=#fff2cc;strokeColor=#d6b656;" vertex="1" parent="UDLYaM1cAH8V1fUTtjYQ-19">
          <mxGeometry x="100" width="120" height="80" as="geometry" />
        </mxCell>
        <mxCell id="UDLYaM1cAH8V1fUTtjYQ-21" value="shard1a:27028" style="shape=cylinder3;whiteSpace=wrap;html=1;boundedLbl=1;backgroundOutline=1;size=15;fillColor=#fff2cc;strokeColor=#d6b656;" vertex="1" parent="UDLYaM1cAH8V1fUTtjYQ-19">
          <mxGeometry y="140" width="120" height="80" as="geometry" />
        </mxCell>
        <mxCell id="UDLYaM1cAH8V1fUTtjYQ-22" value="shard1b:27038" style="shape=cylinder3;whiteSpace=wrap;html=1;boundedLbl=1;backgroundOutline=1;size=15;fillColor=#fff2cc;strokeColor=#d6b656;" vertex="1" parent="UDLYaM1cAH8V1fUTtjYQ-19">
          <mxGeometry x="200" y="140" width="120" height="80" as="geometry" />
        </mxCell>
        <mxCell id="UDLYaM1cAH8V1fUTtjYQ-23" style="edgeStyle=orthogonalEdgeStyle;rounded=1;orthogonalLoop=1;jettySize=auto;html=1;exitX=0;exitY=0;exitDx=0;exitDy=27.5;exitPerimeter=0;entryX=0.145;entryY=0;entryDx=0;entryDy=4.35;entryPerimeter=0;curved=0;strokeWidth=2;startArrow=classic;startFill=1;" edge="1" parent="UDLYaM1cAH8V1fUTtjYQ-19" source="UDLYaM1cAH8V1fUTtjYQ-20" target="UDLYaM1cAH8V1fUTtjYQ-21">
          <mxGeometry relative="1" as="geometry" />
        </mxCell>
        <mxCell id="UDLYaM1cAH8V1fUTtjYQ-24" style="edgeStyle=orthogonalEdgeStyle;rounded=1;orthogonalLoop=1;jettySize=auto;html=1;exitX=1;exitY=0;exitDx=0;exitDy=52.5;exitPerimeter=0;entryX=0;entryY=0;entryDx=0;entryDy=52.5;entryPerimeter=0;curved=0;strokeWidth=2;startArrow=classic;startFill=1;" edge="1" parent="UDLYaM1cAH8V1fUTtjYQ-19" source="UDLYaM1cAH8V1fUTtjYQ-21" target="UDLYaM1cAH8V1fUTtjYQ-22">
          <mxGeometry relative="1" as="geometry" />
        </mxCell>
        <mxCell id="UDLYaM1cAH8V1fUTtjYQ-25" style="edgeStyle=orthogonalEdgeStyle;rounded=1;orthogonalLoop=1;jettySize=auto;html=1;exitX=0.855;exitY=0;exitDx=0;exitDy=4.35;exitPerimeter=0;entryX=1;entryY=0;entryDx=0;entryDy=27.5;entryPerimeter=0;curved=0;strokeWidth=2;startArrow=classic;startFill=1;" edge="1" parent="UDLYaM1cAH8V1fUTtjYQ-19" source="UDLYaM1cAH8V1fUTtjYQ-22" target="UDLYaM1cAH8V1fUTtjYQ-20">
          <mxGeometry relative="1" as="geometry" />
        </mxCell>
        <mxCell id="UDLYaM1cAH8V1fUTtjYQ-26" style="edgeStyle=orthogonalEdgeStyle;rounded=1;orthogonalLoop=1;jettySize=auto;html=1;exitX=0;exitY=0;exitDx=0;exitDy=52.5;exitPerimeter=0;entryX=0.5;entryY=0;entryDx=0;entryDy=0;entryPerimeter=0;curved=0;strokeWidth=2;startArrow=classic;startFill=1;strokeColor=#FF9999;" edge="1" parent="UDLYaM1cAH8V1fUTtjYQ-19" source="UDLYaM1cAH8V1fUTtjYQ-20" target="UDLYaM1cAH8V1fUTtjYQ-21">
          <mxGeometry relative="1" as="geometry" />
        </mxCell>
        <mxCell id="UDLYaM1cAH8V1fUTtjYQ-27" style="edgeStyle=orthogonalEdgeStyle;rounded=1;orthogonalLoop=1;jettySize=auto;html=1;exitX=1;exitY=0;exitDx=0;exitDy=27.5;exitPerimeter=0;entryX=0;entryY=0;entryDx=0;entryDy=27.5;entryPerimeter=0;curved=0;strokeWidth=2;startArrow=classic;startFill=1;strokeColor=#FF9999;" edge="1" parent="UDLYaM1cAH8V1fUTtjYQ-19" source="UDLYaM1cAH8V1fUTtjYQ-21" target="UDLYaM1cAH8V1fUTtjYQ-22">
          <mxGeometry relative="1" as="geometry" />
        </mxCell>
        <mxCell id="UDLYaM1cAH8V1fUTtjYQ-28" style="edgeStyle=orthogonalEdgeStyle;rounded=1;orthogonalLoop=1;jettySize=auto;html=1;exitX=0.5;exitY=0;exitDx=0;exitDy=0;exitPerimeter=0;entryX=1;entryY=0;entryDx=0;entryDy=52.5;entryPerimeter=0;curved=0;strokeWidth=2;startArrow=classic;startFill=1;strokeColor=#FF9999;" edge="1" parent="UDLYaM1cAH8V1fUTtjYQ-19" source="UDLYaM1cAH8V1fUTtjYQ-22" target="UDLYaM1cAH8V1fUTtjYQ-20">
          <mxGeometry relative="1" as="geometry" />
        </mxCell>
        <mxCell id="UDLYaM1cAH8V1fUTtjYQ-29" value="" style="group" vertex="1" connectable="0" parent="1">
          <mxGeometry x="440" y="340" width="320" height="220" as="geometry" />
        </mxCell>
        <mxCell id="UDLYaM1cAH8V1fUTtjYQ-30" value="shard2:27019" style="shape=cylinder3;whiteSpace=wrap;html=1;boundedLbl=1;backgroundOutline=1;size=15;fillColor=#fff2cc;strokeColor=#d6b656;" vertex="1" parent="UDLYaM1cAH8V1fUTtjYQ-29">
          <mxGeometry x="100" width="120" height="80" as="geometry" />
        </mxCell>
        <mxCell id="UDLYaM1cAH8V1fUTtjYQ-31" value="shard2a:27029" style="shape=cylinder3;whiteSpace=wrap;html=1;boundedLbl=1;backgroundOutline=1;size=15;fillColor=#fff2cc;strokeColor=#d6b656;" vertex="1" parent="UDLYaM1cAH8V1fUTtjYQ-29">
          <mxGeometry y="140" width="120" height="80" as="geometry" />
        </mxCell>
        <mxCell id="UDLYaM1cAH8V1fUTtjYQ-32" value="shard2b:27039" style="shape=cylinder3;whiteSpace=wrap;html=1;boundedLbl=1;backgroundOutline=1;size=15;fillColor=#fff2cc;strokeColor=#d6b656;" vertex="1" parent="UDLYaM1cAH8V1fUTtjYQ-29">
          <mxGeometry x="200" y="140" width="120" height="80" as="geometry" />
        </mxCell>
        <mxCell id="UDLYaM1cAH8V1fUTtjYQ-33" style="edgeStyle=orthogonalEdgeStyle;rounded=1;orthogonalLoop=1;jettySize=auto;html=1;exitX=0;exitY=0;exitDx=0;exitDy=27.5;exitPerimeter=0;entryX=0.145;entryY=0;entryDx=0;entryDy=4.35;entryPerimeter=0;curved=0;strokeWidth=2;startArrow=classic;startFill=1;" edge="1" parent="UDLYaM1cAH8V1fUTtjYQ-29" source="UDLYaM1cAH8V1fUTtjYQ-30" target="UDLYaM1cAH8V1fUTtjYQ-31">
          <mxGeometry relative="1" as="geometry" />
        </mxCell>
        <mxCell id="UDLYaM1cAH8V1fUTtjYQ-34" style="edgeStyle=orthogonalEdgeStyle;rounded=1;orthogonalLoop=1;jettySize=auto;html=1;exitX=1;exitY=0;exitDx=0;exitDy=52.5;exitPerimeter=0;entryX=0;entryY=0;entryDx=0;entryDy=52.5;entryPerimeter=0;curved=0;strokeWidth=2;startArrow=classic;startFill=1;" edge="1" parent="UDLYaM1cAH8V1fUTtjYQ-29" source="UDLYaM1cAH8V1fUTtjYQ-31" target="UDLYaM1cAH8V1fUTtjYQ-32">
          <mxGeometry relative="1" as="geometry" />
        </mxCell>
        <mxCell id="UDLYaM1cAH8V1fUTtjYQ-35" style="edgeStyle=orthogonalEdgeStyle;rounded=1;orthogonalLoop=1;jettySize=auto;html=1;exitX=0.855;exitY=0;exitDx=0;exitDy=4.35;exitPerimeter=0;entryX=1;entryY=0;entryDx=0;entryDy=27.5;entryPerimeter=0;curved=0;strokeWidth=2;startArrow=classic;startFill=1;" edge="1" parent="UDLYaM1cAH8V1fUTtjYQ-29" source="UDLYaM1cAH8V1fUTtjYQ-32" target="UDLYaM1cAH8V1fUTtjYQ-30">
          <mxGeometry relative="1" as="geometry" />
        </mxCell>
        <mxCell id="UDLYaM1cAH8V1fUTtjYQ-36" style="edgeStyle=orthogonalEdgeStyle;rounded=1;orthogonalLoop=1;jettySize=auto;html=1;exitX=0;exitY=0;exitDx=0;exitDy=52.5;exitPerimeter=0;entryX=0.5;entryY=0;entryDx=0;entryDy=0;entryPerimeter=0;curved=0;strokeWidth=2;startArrow=classic;startFill=1;strokeColor=#FF9999;" edge="1" parent="UDLYaM1cAH8V1fUTtjYQ-29" source="UDLYaM1cAH8V1fUTtjYQ-30" target="UDLYaM1cAH8V1fUTtjYQ-31">
          <mxGeometry relative="1" as="geometry" />
        </mxCell>
        <mxCell id="UDLYaM1cAH8V1fUTtjYQ-37" style="edgeStyle=orthogonalEdgeStyle;rounded=1;orthogonalLoop=1;jettySize=auto;html=1;exitX=1;exitY=0;exitDx=0;exitDy=27.5;exitPerimeter=0;entryX=0;entryY=0;entryDx=0;entryDy=27.5;entryPerimeter=0;curved=0;strokeWidth=2;startArrow=classic;startFill=1;strokeColor=#FF9999;" edge="1" parent="UDLYaM1cAH8V1fUTtjYQ-29" source="UDLYaM1cAH8V1fUTtjYQ-31" target="UDLYaM1cAH8V1fUTtjYQ-32">
          <mxGeometry relative="1" as="geometry" />
        </mxCell>
        <mxCell id="UDLYaM1cAH8V1fUTtjYQ-38" style="edgeStyle=orthogonalEdgeStyle;rounded=1;orthogonalLoop=1;jettySize=auto;html=1;exitX=0.5;exitY=0;exitDx=0;exitDy=0;exitPerimeter=0;entryX=1;entryY=0;entryDx=0;entryDy=52.5;entryPerimeter=0;curved=0;strokeWidth=2;startArrow=classic;startFill=1;strokeColor=#FF9999;" edge="1" parent="UDLYaM1cAH8V1fUTtjYQ-29" source="UDLYaM1cAH8V1fUTtjYQ-32" target="UDLYaM1cAH8V1fUTtjYQ-30">
          <mxGeometry relative="1" as="geometry" />
        </mxCell>
        <mxCell id="UDLYaM1cAH8V1fUTtjYQ-40" value="redis_1:6379" style="rounded=1;whiteSpace=wrap;html=1;fillColor=#e1d5e7;strokeColor=#9673a6;" vertex="1" parent="1">
          <mxGeometry x="40" y="220" width="120" height="80" as="geometry" />
        </mxCell>
      </root>
    </mxGraphModel>
  </diagram>
</mxfile>
